<?xml version="1.0" encoding="utf-8"?>
<!-- Generator: Adobe Illustrator 22.1.0, SVG Export Plug-In . SVG Version: 6.00 Build 0)  -->
<svg version="1.1" id="Layer_1" xmlns="http://www.w3.org/2000/svg" xmlns:xlink="http://www.w3.org/1999/xlink" x="0px" y="0px"
	 viewBox="0 0 2250 685" style="enable-background:new 0 0 2250 685;" xml:space="preserve">
<style type="text/css">
	.st0{fill:#E2BE79;}
	.st1{fill:#080A15;}
</style>
<title>alto_logo</title>
<path class="st0" d="M373.4,28.3l-1.2,2L233.9,346.4L131,581.7c14.5-6.7,29.4-12.8,44.6-18.4l80.3-217.1L373.4,28.3z"/>
<path class="st0" d="M373.5,28.1l-97,333.1L222,548.6c12.2-3.3,24.5-6.2,37-8.7l35.5-162.3l79.4-349.9L373.5,28.1z"/>
<path class="st0" d="M330.3,383.8l-18,147.8c10.4-1.1,20.8-1.9,31.3-2.5l4.1-143.6L374,27.3l-0.2,0.3L330.3,383.8z"/>
<path class="st0" d="M372.2,30.5L192.5,341.6L11,656h0.1c23.1-18.5,47.5-35.2,73.1-50l136.4-272.7L372.2,30.5z"/>
<path class="st0" d="M555.5,341.6L375.8,30.5l0,0l-0.1-0.1l0,0l-1.2-2l0,0l-0.4-0.7l0,0l-0.2-0.3l26.2,358.3l4.1,143.6
	c10.5,0.5,21,1.4,31.3,2.5l-18-147.8L374.2,27.6l0,0.1l0,0l79.4,349.9l35.5,162.3c12.5,2.5,24.8,5.4,36.9,8.7l-54.6-187.4l-97-333.1
	l0.1,0.2l117.6,317.9l80.3,217.1c15.1,5.5,30,11.7,44.5,18.4L514,346.4L375.8,30.3l0.1,0.1l151.5,302.8L663.8,606
	c25.6,14.8,50.1,31.5,73.1,50h0.1L555.5,341.6z"/>
<g>
	<path class="st1" d="M1172,376.4h-54.6l-29.8-71h-139l-30.2,71h-52.9L994.8,80.3h47.9L1172,376.4z M1017.9,142.1l-50.4,117.6h101.2
		L1017.9,142.1z"/>
	<path class="st1" d="M1306.4,82.4h51.2v247.4h154.6v46.6h-205.8L1306.4,82.4z"/>
	<path class="st1" d="M1732.7,376.4h-52.1V130.3h-93.2V82.4H1826v47.9h-93.2L1732.7,376.4z"/>
	<path class="st1" d="M2231.7,287.8c-7.3,18.1-18.2,34.6-31.9,48.5c-14,14-30.5,25.2-48.7,33c-18.8,8.1-39.5,12.2-62.2,12.2
		s-43.4-4-62.2-12c-36.4-15.1-65.2-44.2-79.8-80.9c-15.1-37.7-15.1-79.9,0-117.6c7.3-18.1,18.2-34.6,31.9-48.5
		c14-14,30.5-25.2,48.7-33c18.8-8.1,39.5-12.2,62.2-12.2s43.4,4,62.2,12c36.4,15.1,65.2,44.2,79.8,80.8
		C2246.8,207.9,2246.8,250,2231.7,287.8z M2181.5,189.3c-4.7-12.3-11.6-23.7-20.6-33.4c-8.9-9.6-19.7-17.3-31.7-22.7
		c-25.6-11.1-54.7-11.2-80.4-0.2c-11.8,5.2-22.5,12.8-31.3,22.3c-8.9,9.6-15.8,20.9-20.4,33.2c-9.8,26.1-9.8,54.9,0,81.1
		c4.7,12.3,11.6,23.7,20.6,33.4c8.9,9.6,19.7,17.3,31.7,22.7c25.6,11.1,54.7,11.2,80.4,0.2c11.8-5.2,22.5-12.8,31.3-22.3
		c8.8-9.7,15.8-20.9,20.4-33.2C2191.3,244.2,2191.3,215.4,2181.5,189.3L2181.5,189.3z"/>
	<path class="st1" d="M900,543.3v35.6h30.1V591H900v49.9h-14V530.5h46.5v12.8L900,543.3z"/>
	<path class="st1" d="M1042.8,640.9V530.5h14v110.5H1042.8z"/>
	<path class="st1" d="M1223.4,640.9l-35.2-85.7h-0.5v85.7h-13V530.5h16.8l34.8,85.8h0.5v-85.8h12.9v110.5H1223.4z"/>
	<path class="st1" d="M1405.6,640.9l-6.2-25.9h-32l-6.4,25.9h-14.2l27.8-110.5h18.6l27.2,110.5H1405.6z M1383.9,543.6h-0.6l-14,60.4
		h28.2L1383.9,543.6z"/>
	<path class="st1" d="M1576,640.9l-35.2-85.7h-0.5v85.7h-13V530.5h16.8l34.8,85.8h0.5v-85.8h12.9v110.5H1576z"/>
	<path class="st1" d="M1760.5,639.6c-4.4,2.7-9.7,4-15.9,4c-5.8,0.1-11.5-1.4-16.5-4.4c-5-3-9.2-7.2-12.3-12.2
		c-3.5-5.7-6.1-11.8-7.6-18.3c-1.8-7.5-2.7-15.3-2.7-23c-0.1-7.8,0.9-15.5,2.7-23.1c1.6-6.5,4.2-12.7,7.8-18.3
		c3.1-4.9,7.4-9,12.3-12.1c4.9-2.9,10.6-4.4,16.3-4.4c5.3-0.1,10.6,1.1,15.4,3.3c4.7,2.2,8.7,5.7,11.6,10l-8.7,9.5
		c-2-3.1-4.7-5.6-7.9-7.4c-3-1.6-6.3-2.4-9.7-2.4c-4-0.1-7.9,1.2-11.1,3.6c-3.3,2.6-5.9,5.9-7.7,9.7c-2.2,4.5-3.7,9.3-4.6,14.3
		c-1.1,5.7-1.6,11.6-1.6,17.4c0,5.8,0.5,11.6,1.6,17.3c0.9,5,2.5,9.8,4.7,14.3c1.8,3.8,4.5,7.2,7.9,9.8c3.2,2.4,7.1,3.7,11.2,3.6
		c3.6,0.1,7.2-1,10.2-3.1c2.9-2,5.3-4.6,7.1-7.6l8.4,9.2C1768.5,633.4,1764.9,637,1760.5,639.6z"/>
	<path class="st1" d="M1879.7,640.9V530.5h14v110.5H1879.7z"/>
	<path class="st1" d="M2059.6,640.9l-6.2-25.9h-32l-6.4,25.9h-14.2l27.8-110.5h18.6l27.1,110.5H2059.6z M2037.9,543.6h-0.6l-14,60.4
		h28.2L2037.9,543.6z"/>
	<path class="st1" d="M2181.2,640.9V530.5h14v97.3h31.2v13.1L2181.2,640.9z"/>
</g>
</svg>
