<svg width="578" height="156" viewBox="0 0 578 156" version="1.1" xmlns="http://www.w3.org/2000/svg" xmlns:xlink="http://www.w3.org/1999/xlink">
<g id="Canvas" fill="none">
<g id="Group 3">
<g id="Group">
<g id="Group_2">
<g id="Vector">
<path d="M 0 90.9432L 0 -1.69726e-07L 31.1449 -1.69726e-07C 41.4672 -1.69726e-07 49.2979 2.13565 54.6371 6.22898C 59.9762 10.3223 62.6458 16.5513 62.6458 24.738C 62.6458 28.8313 61.5779 32.7467 59.2643 35.9501C 56.9507 39.3316 53.7472 41.8232 49.2979 43.7808C 54.2811 45.2046 58.0185 47.6962 60.6881 51.2556C 63.3576 54.815 64.7814 59.4423 64.7814 64.6035C 64.7814 73.1461 62.1119 79.731 56.5948 84.3582C 51.0777 88.9855 43.2469 91.2991 33.1026 91.2991L 0 91.2991L 0 90.9432ZM 15.8394 38.2638L 31.3229 38.2638C 36.3061 38.2638 40.0435 37.1959 42.891 34.8823C 45.7385 32.5687 46.9843 29.5432 46.9843 25.4498C 46.9843 21.0006 45.7385 17.6191 43.069 15.6614C 40.3994 13.7038 36.484 12.6359 31.1449 12.6359L 15.8394 12.6359L 15.8394 38.2638ZM 15.8394 49.8319L 15.8394 78.3072L 33.4585 78.3072C 38.4417 78.3072 42.3571 77.0614 45.0266 74.5698C 47.8742 72.0782 49.2979 68.6968 49.2979 64.2475C 49.2979 54.8151 44.4927 50.0098 34.7043 49.6539L 15.8394 49.6539L 15.8394 49.8319Z" transform="translate(195.593 35.1409)" fill="#2F2F2F"/>
</g>
<g id="Vector_2">
<path d="M 0 8.18666C 0 5.87304 0.711885 3.91536 2.13565 2.31362C 3.55942 0.711884 5.69507 8.48631e-08 8.5426 8.48631e-08C 11.3901 8.48631e-08 13.3478 0.711884 14.9496 2.31362C 16.3733 3.91536 17.2632 5.87304 17.2632 8.18666C 17.2632 10.5003 16.5513 12.458 14.9496 13.8817C 13.5258 15.4835 11.3901 16.1954 8.5426 16.1954C 5.69507 16.1954 3.73739 15.4835 2.13565 13.8817C 0.711885 12.458 0 10.5003 0 8.18666ZM 16.1954 93.4347L 1.06782 93.4347L 1.06782 25.8058L 16.1954 25.8058L 16.1954 93.4347Z" transform="translate(272.12 32.649)" fill="#2F2F2F"/>
</g>
<g id="Vector_3">
<path d="M 26.1617 0L 26.1617 16.3733L 38.0858 16.3733L 38.0858 27.5855L 26.1617 27.5855L 26.1617 65.3153C 26.1617 67.9849 26.6956 69.7646 27.7635 70.8324C 28.8313 71.9003 30.611 72.6121 33.2806 72.6121C 35.0603 72.6121 36.84 72.4342 38.6197 71.9003L 38.6197 83.6463C 35.2382 84.5362 31.8568 85.0701 28.6533 85.0701C 16.9072 85.0701 11.2122 78.6631 11.2122 65.6713L 11.2122 27.5855L 0 27.5855L 0 16.3733L 11.2122 16.3733L 11.2122 0L 26.1617 0Z" transform="translate(296.146 42.0812)" fill="#2F2F2F"/>
</g>
<g id="Vector_4">
<path d="M 35.4162 15.1275C 33.4585 14.7716 31.3229 14.5936 29.1872 14.5936C 22.2464 14.5936 17.4411 17.2632 15.1275 22.6023L 15.1275 68.8747L -5.43124e-06 68.8747L -5.43124e-06 1.2458L 14.5936 1.2458L 14.7716 8.89854C 18.509 3.02551 23.4922 0 30.0771 0C 32.2127 0 33.9924 0.355942 35.4162 0.889854L 35.4162 15.1275Z" transform="translate(344.554 57.2089)" fill="#2F2F2F"/>
</g>
<g id="Vector_5">
<path d="M 32.3907 70.2985C 22.7803 70.2985 14.9496 67.273 8.89855 61.222C 2.84754 55.171 2.71562e-06 46.9843 2.71562e-06 37.018L 2.71562e-06 35.0603C 2.71562e-06 28.2974 1.24579 22.2464 3.91536 16.9072C 6.58492 11.5681 10.1443 7.47478 14.9496 4.44927C 19.5768 1.42377 24.9159 -6.78905e-07 30.789 -6.78905e-07C 40.0435 -6.78905e-07 47.1623 3.0255 52.1455 8.89854C 57.1287 14.7716 59.6202 23.1362 59.6202 33.8145L 59.6202 39.8655L 15.3055 39.8655C 15.8394 45.3826 17.6191 49.8319 20.8226 53.2133C 24.0261 56.5947 28.2974 58.0185 33.1026 58.0185C 40.0435 58.0185 45.7385 55.171 50.1878 49.6539L 58.3745 57.4846C 55.7049 61.5779 51.9675 64.6034 47.5182 66.9171C 43.069 69.2307 38.0858 70.2985 32.3907 70.2985ZM 30.611 12.458C 26.5177 12.458 23.1362 13.8817 20.4667 16.9072C 17.9751 19.7548 16.1954 23.8481 15.4835 29.1872L 44.4927 29.1872L 44.4927 28.1194C 44.1368 22.9582 42.891 19.2209 40.3994 16.5513C 38.0858 13.7038 34.7043 12.458 30.611 12.458Z" transform="translate(384.064 57.0309)" fill="#2F2F2F"/>
</g>
<g id="Vector_6">
<path d="M 10.3223 97.3501L 10.3223 40.9333L -5.43124e-06 40.9333L -5.43124e-06 29.7211L 10.3223 29.7211L 10.3223 23.4922C 10.3223 16.0174 12.458 10.1443 16.5513 6.05101C 20.6446 1.95768 26.5177 0 33.9925 0C 36.662 0 39.5096 0.355942 42.5351 1.06783L 42.3571 12.9919C 40.7553 12.6359 38.7977 12.458 36.484 12.458C 29.1872 12.458 25.6278 16.1954 25.6278 23.6701L 25.6278 29.7211L 39.3316 29.7211L 39.3316 40.9333L 25.6278 40.9333L 25.6278 97.3501L 10.3223 97.3501Z" transform="translate(448.667 28.7335)" fill="#2F2F2F"/>
</g>
<g id="Vector_7">
<path d="M -5.43124e-06 8.18666C -5.43124e-06 5.87304 0.711873 3.91536 2.13564 2.31362C 3.55941 0.711884 5.69507 8.48631e-08 8.5426 8.48631e-08C 11.3901 8.48631e-08 13.3478 0.711884 14.9496 2.31362C 16.3733 3.91536 17.2632 5.87304 17.2632 8.18666C 17.2632 10.5003 16.5513 12.458 14.9496 13.8817C 13.5258 15.4835 11.3901 16.1954 8.5426 16.1954C 5.69507 16.1954 3.73738 15.4835 2.13564 13.8817C 0.711873 12.458 -5.43124e-06 10.5003 -5.43124e-06 8.18666ZM 16.0174 93.4347L 0.889849 93.4347L 0.889849 25.8058L 16.0174 25.8058L 16.0174 93.4347Z" transform="translate(499.281 32.649)" fill="#2F2F2F"/>
</g>
<g id="Vector_8">
<path d="M 15.1275 96.1043L -5.43124e-06 96.1043L -5.43124e-06 -2.12158e-08L 15.1275 -2.12158e-08L 15.1275 96.1043Z" transform="translate(531.316 29.9791)" fill="#2F2F2F"/>
</g>
<g id="Vector_9">
<path d="M 15.1275 96.1043L 1.08625e-05 96.1043L 1.08625e-05 -2.12158e-08L 15.1275 -2.12158e-08L 15.1275 96.1043Z" transform="translate(562.283 29.9791)" fill="#2F2F2F"/>
</g>
</g>
</g>
<g id="Subtract">
<path fill-rule="evenodd" clip-rule="evenodd" d="M 54.1237 0L 101.118 0C 116.703 0 124.493 0 132.883 2.6521C 142.042 5.98584 149.256 13.1995 152.59 22.3586C 155.242 30.7469 155.242 38.54 155.242 54.1237L 155.242 101.118C 155.242 116.703 155.242 124.493 152.59 132.883C 149.256 142.042 142.042 149.256 132.883 152.588C 124.493 155.242 116.703 155.242 101.118 155.242L 54.1237 155.242C 38.5387 155.242 30.7469 155.242 22.3587 152.588C 13.1994 149.256 5.98587 142.042 2.65204 132.883C 0 124.493 0 116.703 0 101.118L 0 54.1237C 0 38.54 0 30.7469 2.65204 22.3586C 5.98587 13.1995 13.1994 5.98584 22.3587 2.6521C 30.7469 0 38.5387 0 54.1237 0ZM 117.037 90.4065C 117.037 109.079 102.245 124.215 83.9987 124.215C 65.9937 124.215 51.3527 109.477 50.9684 91.1458L 46.7219 91.1458C 47.107 111.876 63.6489 128.56 83.9987 128.56C 104.59 128.56 121.283 111.478 121.283 90.4065C 121.283 69.8945 105.465 53.1626 85.6303 52.2888L 85.6303 52.2692L 77.5591 52.2692L 77.5591 52.2631L 65.7215 52.2631L 65.7215 47.3768L 65.7063 47.3768L 65.7063 29.1222C 65.7063 23.7556 61.4551 19.4053 56.2109 19.4053C 50.9665 19.4053 46.7153 23.7556 46.7153 29.1224L 46.7148 47.3768L 46.7148 52.2631L 45.8801 52.2631C 40.6359 52.2631 36.3847 56.6134 36.3847 61.9802C 36.3847 67.3468 40.6359 71.6971 45.8803 71.6971L 46.7148 71.6971L 46.7148 91.1453L 50.9603 91.1453L 50.9608 61.5404L 50.9608 29.1201C 50.9608 26.1531 53.3113 23.7477 56.2109 23.7477C 59.1103 23.7477 61.4608 26.1531 61.4608 29.1204L 61.4608 61.5404L 61.476 61.5404L 61.476 91.1453L 65.7215 91.1453L 65.7215 71.6976L 83.7659 71.6976L 83.7654 71.7042C 83.8431 71.7031 83.9209 71.7026 83.9986 71.7026C 94.0928 71.7026 102.276 80.0764 102.276 90.4064C 102.276 100.736 94.0928 109.11 83.9986 109.11C 74.1462 109.11 66.1146 101.133 65.7353 91.1458L 61.4872 91.1458C 61.8686 103.533 71.8014 113.455 83.9986 113.455C 96.4374 113.455 106.521 103.135 106.521 90.4064C 106.521 77.6771 96.4374 67.358 83.9986 67.358C 83.9209 67.358 83.8431 67.3585 83.7654 67.3594L 83.7659 67.353L 77.5591 67.3527L 65.7215 67.353L 65.7215 64.153L 85.6308 64.1528C 99.0672 65.014 109.705 76.4387 109.705 90.406C 109.705 104.934 98.1958 116.711 83.9991 116.711C 70.1593 116.711 58.8744 105.519 58.3152 91.4972L 54.0666 91.4972C 54.6281 107.919 67.8142 121.056 83.9991 121.056C 100.541 121.056 113.95 107.333 113.95 90.406C 113.95 73.4783 100.541 59.756 83.9991 59.756C 83.4073 59.756 82.8193 59.7734 82.2358 59.8082L 65.7215 59.8083L 65.7215 56.6077L 75.2289 56.6077L 75.2289 56.6138L 85.1202 56.6138L 85.1202 56.6166C 102.847 57.2217 117.037 72.1182 117.037 90.4065ZM 46.7148 67.3527L 46.7148 64.1006L 46.442 64.1006C 45.2697 64.1006 44.3193 63.1281 44.3193 61.9283C 44.3193 60.7286 45.2697 59.756 46.442 59.756L 46.7148 59.756L 46.7148 56.6077L 45.8783 56.6077C 42.9787 56.6077 40.6281 59.0129 40.6281 61.9802C 40.6281 64.9473 42.9787 67.3527 45.878 67.3527L 46.7148 67.3527ZM 54.088 29.2687C 54.088 28.069 55.0383 27.0964 56.2107 27.0964C 57.3831 27.0964 58.3334 28.069 58.3334 29.2687L 58.3334 91.4967L 54.088 91.4967L 54.088 29.2687Z" transform="translate(0.768997 0.410645)" fill="#449BF7"/>
</g>
</g>
</g>
</svg>

