<svg id="Layer_1" data-name="Layer 1" xmlns="http://www.w3.org/2000/svg" viewBox="0 0 700.34 326.95"><defs><style>.cls-1{fill:#151b21;}</style></defs><title>Bitso_Logo_black</title><path class="cls-1" d="M276.4,114.51a1.38,1.38,0,0,1,1.46-1.46h38.3c21.44,0,31.38,10.52,31.38,26.21,0,10.72-4.88,17.35-11.4,21v.29c6.52,2.44,13.15,10.53,13.15,22.32,0,19.39-12.86,28.65-34.11,28.65H277.86A1.38,1.38,0,0,1,276.4,210Zm37.13,38.78c8.08,0,12.86-4.38,12.86-11.59s-4.78-11.41-12.86-11.41h-15a.78.78,0,0,0-.88.88v21.25a.77.77,0,0,0,.88.87Zm-15,40.93H314.7c8.67,0,13.35-4.67,13.35-12.28s-4.68-12.28-13.35-12.28H298.52a.78.78,0,0,0-.88.88v22.9C297.64,193.93,297.93,194.22,298.52,194.22Z"/><path class="cls-1" d="M358.74,114.41a1.38,1.38,0,0,1,1.47-1.46h18.41a1.38,1.38,0,0,1,1.47,1.46v95.5a1.39,1.39,0,0,1-1.47,1.47H360.21a1.39,1.39,0,0,1-1.47-1.47Z"/><path class="cls-1" d="M417.41,211.47A1.38,1.38,0,0,1,416,210V132.93a.78.78,0,0,0-.88-.88H390.22a1.38,1.38,0,0,1-1.46-1.46V114.51a1.38,1.38,0,0,1,1.46-1.46H463a1.38,1.38,0,0,1,1.46,1.46v16.08a1.38,1.38,0,0,1-1.46,1.46H438.17a.78.78,0,0,0-.88.88V210a1.38,1.38,0,0,1-1.46,1.46Z"/><path class="cls-1" d="M466.72,199.58a1.77,1.77,0,0,1-.19-2.43l11-12.58a1.44,1.44,0,0,1,2.14-.09c6.53,5.16,15.3,10.13,25.73,10.13,10.23,0,16.08-4.77,16.08-11.69,0-5.75-3.51-9.36-15.2-11l-5.17-.68C481.14,168.5,470,159,470,141.7c0-18.13,13.65-30.12,34.89-30.12,13.06,0,25.15,3.9,33.43,10.24.88.58,1,1.17.29,2.14l-8.87,13.16a1.44,1.44,0,0,1-2,.39C520.22,132.63,513,130,504.82,130c-8.67,0-13.15,4.49-13.15,10.72,0,5.65,4.09,9.26,15.3,10.82l5.16.68c20.27,2.73,31,12,31,29.82S530,213,504.53,213C489.23,213,474.32,207,466.72,199.58Z"/><path class="cls-1" d="M553.55,189.16c-2.14-6.83-2.73-12.28-2.73-26.9s.59-20.08,2.73-26.9c5.07-15.88,18.71-23.87,35.86-23.87s30.8,8,35.87,23.87c2.14,6.82,2.72,12.28,2.72,26.9s-.58,20.07-2.72,26.9C620.21,205,606.57,213,589.41,213S558.62,205,553.55,189.16Zm51.36-5.75c1.17-3.51,1.56-8.29,1.56-21.15s-.39-17.64-1.56-21.15c-2.15-6.82-7.41-10.82-15.5-10.82s-13.35,4.1-15.49,10.82c-1.17,3.51-1.56,8.29-1.56,21.15s.39,17.64,1.56,21.15c2.14,6.82,7.4,10.81,15.49,10.81S602.76,190.13,604.91,183.41Z"/><path class="cls-1" d="M160.56,77a88.42,88.42,0,0,0-20.47,2.34,2.57,2.57,0,0,0-1.75,1.07,3.5,3.5,0,0,0-.58,1.85v52.43s0,1.07.49,1.46,1,.39,1.74-.19a36,36,0,0,1,56.73,29.53v78.83a1.45,1.45,0,0,0,.38,1.18,1.12,1.12,0,0,0,1.27.09A88.49,88.49,0,0,0,160.56,77Z"/><path class="cls-1" d="M183.52,194.52a1,1,0,0,0-1.37.1,35.54,35.54,0,0,1-21.23,6.92,36.11,36.11,0,0,1-36.07-36.06V75.33a2.47,2.47,0,0,0-.87-2,3,3,0,0,0-1.86-.48H75.05a2.91,2.91,0,0,0-1.94.68,2.22,2.22,0,0,0-.78,1.85c0,13,.1,73.57.1,90.14a88.49,88.49,0,0,0,88.49,88.49,86.7,86.7,0,0,0,20.94-2.54,3.55,3.55,0,0,0,1.36-1,4.1,4.1,0,0,0,.59-2V195.78A1.83,1.83,0,0,0,183.52,194.52Z"/></svg>