<?xml version="1.0" encoding="UTF-8"?>
<svg width="168px" height="59px" background-color="black" color="black" viewBox="0 0 168 59" version="1.1" xmlns="http://www.w3.org/2000/svg" xmlns:xlink="http://www.w3.org/1999/xlink ">
    <title>bitnob-02</title>
    <defs>
        <circle id="path-1" cx="10.23" cy="10.23" r="10.23"></circle>
        <path d="M5.56,0 C7.52937124,0.000512105054 9.45665312,0.570015219 11.11,1.64 C7.72929573,3.82614087 3.38070427,3.82614087 1.77635684e-15,1.64 C1.65692335,0.569733201 3.5874722,0.000290732997 5.56,0 L5.56,0 Z" id="path-3"></path>
        <path d="M5.55,0 C7.5225278,0.000290732997 9.45307665,0.569733201 11.11,1.64 C7.72929573,3.82614087 3.38070427,3.82614087 0,1.64 C1.65334688,0.570015219 3.58062876,0.000512105054 5.55,0 L5.55,0 Z" id="path-5"></path>
        <path d="M3.27014684,5.56 C3.27304572,7.52986706 2.7032604,9.45810396 1.63012283,11.11 C-0.543374278,7.72557461 -0.543374278,3.38442539 1.63012283,3.55271368e-15 C2.70459165,1.65499239 3.27440941,3.58681357 3.27014684,5.56 L3.27014684,5.56 Z" id="path-7"></path>
        <path d="M3.27015115,5.56 C3.27477981,7.5301162 2.70485139,9.45883736 1.63012283,11.11 C-0.543374278,7.72557461 -0.543374278,3.38442539 1.63012283,0 C2.70459165,1.65499239 3.27440941,3.58681357 3.27015115,5.56 L3.27015115,5.56 Z" id="path-9"></path>
        <path d="M27.4987639,17.1900391 C25.5293926,17.1905512 23.6021107,17.7600543 21.9487639,18.8300391 C25.3294681,21.0161799 29.6780596,21.0161799 33.0587639,18.8300391 C31.4018405,17.7597723 29.4712917,17.1903298 27.4987639,17.1900391 L27.4987639,17.1900391 Z M10.3087639,17.1900391 C8.33623606,17.1903298 6.40568721,17.7597723 4.74876386,18.8300391 C8.12946813,21.0161799 12.4780596,21.0161799 15.8587639,18.8300391 C14.205417,17.7600543 12.2781351,17.1905512 10.3087639,17.1900391 L10.3087639,17.1900391 Z M27.4987639,3.9060423e-05 C32.0321026,0.0062314257 36.0218195,2.99243031 37.3056008,7.34020033 C38.589382,11.6879704 36.8616408,16.3623831 33.0587639,18.8300391 C36.5732725,21.0975672 38.3555026,25.2745804 37.5605411,29.380855 C36.7655795,33.4871295 33.5532319,36.6972084 29.4463968,37.4892689 C25.3395616,38.2813294 21.1638086,36.4961487 18.8987639,32.9800391 C21.0849047,29.5993348 21.0849047,25.2507433 18.8987639,21.8700391 C19.6820004,20.6745225 20.7032473,19.6532756 21.8987639,18.8700391 C20.7010433,18.0895164 19.6792866,17.0677596 18.8987639,15.8700391 C21.0849047,12.4893348 21.0849047,8.14074333 18.8987639,4.76003906 C20.7693902,1.81408293 24.0091415,0.0209182351 27.4987639,3.9060423e-05 Z M10.3087639,1.9486978e-05 C13.7807526,0.00126968521 17.0151337,1.76342377 18.8987639,4.68003906 C16.7252668,8.06446445 16.7252668,12.4056137 18.8987639,15.7900391 C18.1217314,16.990586 17.0993108,18.0130066 15.8987639,18.7900391 C17.0970432,19.5698726 18.1189304,20.5917597 18.8987639,21.7900391 C16.7252668,25.1744644 16.7252668,29.5156137 18.8987639,32.9000391 C16.6666439,36.4615824 12.4831834,38.2953625 8.35148527,37.5233382 C4.21978715,36.7513139 0.980776169,33.5306154 0.18533882,29.4033608 C-0.610098529,25.2761063 1.19993316,21.082316 4.74876386,18.8300391 C0.930909995,16.3705977 -0.808462524,11.6885773 0.477617413,7.33302237 C1.76369735,2.97746748 5.76731234,-0.00880091921 10.3087639,1.9486978e-05 L10.3087639,1.9486978e-05 Z" id="path-11"></path>
    </defs>
    <g id="Page-1" stroke="none" stroke-width="1" fill="none" fill-rule="evenodd">
        <g id="bitnob-02">
            <path d="M96.8087639,31.15 L84.9887639,31.15 C83.8344887,31.15 82.8987639,30.2142751 82.8987639,29.06 C82.8987639,27.9057249 83.8344887,26.97 84.9887639,26.97 L96.8087639,26.97 C97.963039,26.97 98.8987639,27.9057249 98.8987639,29.06 C98.8987639,30.2142751 97.963039,31.15 96.8087639,31.15 L96.8087639,31.15 Z" id="Path" fill="#FFFFFF" fill-rule="nonzero"></path>
            <circle id="Oval" fill="#FFFFFF" fill-rule="nonzero" cx="79.3687639" cy="20.92" r="2.15"></circle>
            <path d="M55.0087639,39.54 C53.8197232,39.54 52.8542687,38.579028 52.8487639,37.39 L52.8487639,18.25 C52.926009,17.1167043 53.8678387,16.2368843 55.0037639,16.2368843 C56.139689,16.2368843 57.0815187,17.1167043 57.1587639,18.25 L57.1587639,37.37 C57.1641006,37.9436728 56.9399415,38.4956858 56.5361584,38.903225 C56.1323753,39.3107642 55.5824615,39.54 55.0087639,39.54 L55.0087639,39.54 Z" id="Path" fill="#FFFFFF" fill-rule="nonzero"></path>
            <path d="M63.6987639,48.37 C57.71752,48.37 52.8687639,43.5212438 52.8687639,37.54 C52.8687639,31.5587562 57.71752,26.71 63.6987639,26.71 C69.6800077,26.71 74.5287639,31.5587562 74.5287639,37.54 C74.5232508,43.5189587 69.6777226,48.3644869 63.6987639,48.37 Z M63.6987639,30.97 C60.0702531,30.97 57.1287639,33.9114892 57.1287639,37.54 C57.1287639,41.1685108 60.0702531,44.11 63.6987639,44.11 C67.3272747,44.11 70.2687639,41.1685108 70.2687639,37.54 C70.2687639,33.9114892 67.3272747,30.97 63.6987639,30.97 L63.6987639,30.97 Z" id="Shape" fill="#FFFFFF" fill-rule="nonzero"></path>
            <path d="M147.998764,39.65 C146.826799,39.65 145.870568,38.7117622 145.848764,37.54 L145.848764,18.38 C145.848764,17.1925878 146.811352,16.23 147.998764,16.23 C149.186176,16.23 150.148764,17.1925878 150.148764,18.38 L150.148764,37.54 C150.12696,38.7117622 149.170729,39.65 147.998764,39.65 Z" id="Path" fill="#FFFFFF" fill-rule="nonzero"></path>
            <path d="M156.698764,48.37 C150.71752,48.37 145.868764,43.5212438 145.868764,37.54 C145.868764,31.5587562 150.71752,26.71 156.698764,26.71 C162.680008,26.71 167.528764,31.5587562 167.528764,37.54 C167.523251,43.5189587 162.677723,48.3644869 156.698764,48.37 Z M156.698764,30.9699923 C154.040541,30.965954 151.641813,32.5641153 150.62175,35.018833 C149.601687,37.4735507 150.161318,40.3010635 152.039535,42.1821444 C153.917753,44.0632252 156.74441,44.6271618 159.200679,43.6108394 C161.656948,42.5945169 163.258764,40.1982263 163.258764,37.54 C163.253276,33.9176659 160.321085,30.981006 156.698764,30.9699923 L156.698764,30.9699923 Z" id="Shape" fill="#FFFFFF" fill-rule="nonzero"></path>
            <path d="M79.0887639,48.63 C77.8997359,48.6244952 76.9387639,47.6590407 76.9387639,46.47 L76.9387639,29.27 C77.016009,28.1367043 77.9578387,27.2568843 79.0937639,27.2568843 C80.229689,27.2568843 81.1715187,28.1367043 81.2487639,29.27 L81.2487639,46.47 C81.2487639,47.6629351 80.2816989,48.63 79.0887639,48.63 L79.0887639,48.63 Z" id="Path" fill="#FFFFFF" fill-rule="nonzero"></path>
            <path d="M91.1087639,48.78 C90.0041944,48.78 89.1087639,47.8845695 89.1087639,46.78 L88.9187639,18.23 C88.9187639,17.1254305 89.8141944,16.23 90.9187639,16.23 L90.9187639,16.23 C92.0233334,16.23 92.9187639,17.1254305 92.9187639,18.23 L93.1087639,46.78 C93.1087639,47.8845695 92.2133334,48.78 91.1087639,48.78 Z" id="Path" fill="#FFFFFF" fill-rule="nonzero"></path>
            <path d="M117.778764,48.8200233 C117.206818,48.8226602 116.657384,48.597318 116.252016,48.1938261 C115.846647,47.7903342 115.618758,47.2419523 115.618764,46.67 L115.618764,37.54 C115.618764,33.9114892 112.677275,30.97 109.048764,30.97 C105.420253,30.97 102.478764,33.9114892 102.478764,37.54 L102.478764,46.65 C102.478764,47.8374122 101.516176,48.8 100.328764,48.8 C99.1413517,48.8 98.1787639,47.8374122 98.1787639,46.65 L98.1787639,37.54 C98.1787639,31.5366648 103.045429,26.67 109.048764,26.67 C115.052099,26.67 119.918857,31.5366648 119.918857,37.54 L119.918857,46.65 C119.924091,47.2219436 119.701299,47.7724358 119.299682,48.1796838 C118.898064,48.5869319 118.350726,48.8173645 117.778764,48.8200233 L117.778764,48.8200233 Z" id="Path" fill="#FFFFFF" fill-rule="nonzero"></path>
            <path d="M133.108764,48.6900045 C128.629549,48.6940444 124.589326,45.998409 122.873336,41.860927 C121.157346,37.723445 122.103812,32.9596167 125.271096,29.7923324 C128.438381,26.6250482 133.202209,25.6785817 137.339691,27.3945717 C141.477173,29.1105617 144.172808,33.1507855 144.168768,37.63 C144.163251,43.7359842 139.214748,48.6844867 133.108764,48.6900045 Z M133.108764,30.8699926 C130.373693,30.865954 127.905684,32.5104075 126.856213,35.0361234 C125.806742,37.5618393 126.382628,40.4710745 128.315185,42.406495 C130.247743,44.3419155 133.156122,44.9221076 135.683389,43.8763766 C138.210656,42.8306457 139.858764,40.3650741 139.858764,37.63 C139.858764,33.9004568 136.838303,30.8755171 133.108764,30.8699926 L133.108764,30.8699926 Z" id="Shape" fill="#FFFFFF" fill-rule="nonzero"></path>
            <g id="Clipped" transform="translate(0.078764, 0.000000)">
                <mask id="mask-2" fill="white">
                    <use xlink:href="#path-1"></use>
                </mask>
                <g id="Oval"></g>
                <rect id="Rectangle" fill="#00E4AF" fill-rule="nonzero" mask="url(#mask-2)" x="-0.46" y="-0.46" width="21.38" height="21.38"></rect>
            </g>
            <g id="Clipped" transform="translate(4.748764, 37.650000)">
                <mask id="mask-4" fill="white">
                    <use xlink:href="#path-3"></use>
                </mask>
                <g id="Path"></g>
                <rect id="Rectangle" fill="#00F9BE" fill-rule="nonzero" mask="url(#mask-4)" x="-0.45" y="-0.45" width="12.02" height="4.18"></rect>
            </g>
            <g id="Clipped" transform="translate(21.948764, 37.650000)">
                <mask id="mask-6" fill="white">
                    <use xlink:href="#path-5"></use>
                </mask>
                <g id="Path"></g>
                <rect id="Rectangle" fill="#00F9BE" fill-rule="nonzero" mask="url(#mask-6)" x="-0.46" y="-0.45" width="12.02" height="4.18"></rect>
            </g>
            <g id="Clipped" transform="translate(17.268641, 25.140000)">
                <mask id="mask-8" fill="white">
                    <use xlink:href="#path-7"></use>
                </mask>
                <g id="Path"></g>
                <rect id="Rectangle" fill="#00F9BE" fill-rule="nonzero" mask="url(#mask-8)" x="-0.459877167" y="-0.45" width="4.18" height="12.02"></rect>
            </g>
            <g id="Clipped" transform="translate(17.268641, 42.330000)">
                <mask id="mask-10" fill="white">
                    <use xlink:href="#path-9"></use>
                </mask>
                <g id="Path"></g>
                <rect id="Rectangle" fill="#00F9BE" fill-rule="nonzero" mask="url(#mask-10)" x="-0.459877167" y="-0.45" width="4.18" height="12.02"></rect>
            </g>
            <g id="Clipped" transform="translate(0.000000, 20.459961)">
                <mask id="mask-12" fill="white">
                    <use xlink:href="#path-11"></use>
                </mask>
                <g id="Shape"></g>
                <rect id="Rectangle" fill="#00E4AF" fill-rule="nonzero" mask="url(#mask-12)" x="-0.381236136" y="-0.44996094" width="38.57" height="38.57"></rect>
            </g>
        </g>
    </g>
</svg>