<?xml version="1.0" encoding="UTF-8" standalone="no"?>
<!DOCTYPE svg PUBLIC "-//W3C//DTD SVG 1.1//EN"
 "http://www.w3.org/Graphics/SVG/1.1/DTD/svg11.dtd">
<!-- Generated by graphviz version 2.40.1 (20161225.0304)
 -->
<!-- Title: fake_coinjoin Pages: 1 -->
<svg width="604pt" height="199pt"
 viewBox="0.00 0.00 604.00 199.00" xmlns="http://www.w3.org/2000/svg" xmlns:xlink="http://www.w3.org/1999/xlink">
<g id="graph0" class="graph" transform="scale(1 1) rotate(0) translate(4 195)">
<title>fake_coinjoin</title>
<polygon fill="#ffffff" stroke="transparent" points="-4,4 -4,-195 600,-195 600,4 -4,4"/>
<g id="clust1" class="cluster">
<title>cluster_fake1</title>
<polygon fill="none" stroke="#000000" points="8,-8 8,-183 188,-183 188,-8 8,-8"/>
<text text-anchor="middle" x="98" y="-167.8" font-family="Times,serif" font-size="14.00" fill="#000000">Perceieved transaction 1</text>
</g>
<g id="clust2" class="cluster">
<title>cluster_fake2</title>
<polygon fill="none" stroke="#000000" points="208,-8 208,-183 388,-183 388,-8 208,-8"/>
<text text-anchor="middle" x="298" y="-167.8" font-family="Times,serif" font-size="14.00" fill="#000000">Perceieved transaction 2</text>
</g>
<g id="clust3" class="cluster">
<title>cluster_actual</title>
<polygon fill="none" stroke="#000000" points="408,-8 408,-183 588,-183 588,-8 408,-8"/>
<text text-anchor="middle" x="498" y="-167.8" font-family="Times,serif" font-size="14.00" fill="#000000">Actual transaction</text>
</g>
<!-- fake1_in_label -->
<g id="node1" class="node">
<title>fake1_in_label</title>
<text text-anchor="middle" x="48" y="-136.3" font-family="Times,serif" font-size="14.00" fill="#000000">Inputs</text>
</g>
<!-- fake1_out_label -->
<g id="node2" class="node">
<title>fake1_out_label</title>
<text text-anchor="middle" x="148" y="-136.3" font-family="Times,serif" font-size="14.00" fill="#000000">Outputs</text>
</g>
<!-- fake1_in_label&#45;&gt;fake1_out_label -->
<!-- fake2_in_label -->
<g id="node9" class="node">
<title>fake2_in_label</title>
<text text-anchor="middle" x="248" y="-136.3" font-family="Times,serif" font-size="14.00" fill="#000000">Inputs</text>
</g>
<!-- fake1_out_label&#45;&gt;fake2_in_label -->
<!-- fake1_in_mine -->
<g id="node3" class="node">
<title>fake1_in_mine</title>
<polygon fill="#c0c0c0" stroke="#000000" points="80,-110 16,-110 16,-72 80,-72 80,-110"/>
<text text-anchor="middle" x="48" y="-94.8" font-family="Times,serif" font-size="14.00" fill="#000000">Mine</text>
<text text-anchor="middle" x="48" y="-79.8" font-family="Times,serif" font-size="14.00" fill="#000000">1.0 BTC</text>
</g>
<!-- fake1_out_other -->
<g id="node4" class="node">
<title>fake1_out_other</title>
<polygon fill="none" stroke="#000000" points="180,-110 116,-110 116,-72 180,-72 180,-110"/>
<text text-anchor="middle" x="148" y="-94.8" font-family="Times,serif" font-size="14.00" fill="#000000">Other</text>
<text text-anchor="middle" x="148" y="-79.8" font-family="Times,serif" font-size="14.00" fill="#000000">0.9 BTC</text>
</g>
<!-- fake1_in_mine&#45;&gt;fake1_out_other -->
<!-- fake2_in_other -->
<g id="node8" class="node">
<title>fake2_in_other</title>
<polygon fill="none" stroke="#000000" points="280,-110 216,-110 216,-72 280,-72 280,-110"/>
<text text-anchor="middle" x="248" y="-94.8" font-family="Times,serif" font-size="14.00" fill="#000000">Other</text>
<text text-anchor="middle" x="248" y="-79.8" font-family="Times,serif" font-size="14.00" fill="#000000">1.0 BTC</text>
</g>
<!-- fake1_out_other&#45;&gt;fake2_in_other -->
<!-- fake1_in_other -->
<g id="node5" class="node">
<title>fake1_in_other</title>
<polygon fill="none" stroke="#000000" points="80,-54 16,-54 16,-16 80,-16 80,-54"/>
<text text-anchor="middle" x="48" y="-38.8" font-family="Times,serif" font-size="14.00" fill="#000000">Other</text>
<text text-anchor="middle" x="48" y="-23.8" font-family="Times,serif" font-size="14.00" fill="#000000">1.0 BTC</text>
</g>
<!-- fake1_out_mine -->
<g id="node6" class="node">
<title>fake1_out_mine</title>
<polygon fill="#c0c0c0" stroke="#000000" points="180,-54 116,-54 116,-16 180,-16 180,-54"/>
<text text-anchor="middle" x="148" y="-38.8" font-family="Times,serif" font-size="14.00" fill="#000000">Mine</text>
<text text-anchor="middle" x="148" y="-23.8" font-family="Times,serif" font-size="14.00" fill="#000000">1.1 BTC</text>
</g>
<!-- fake1_in_other&#45;&gt;fake1_out_mine -->
<!-- fake2_in_mine -->
<g id="node7" class="node">
<title>fake2_in_mine</title>
<polygon fill="#c0c0c0" stroke="#000000" points="280,-54 216,-54 216,-16 280,-16 280,-54"/>
<text text-anchor="middle" x="248" y="-38.8" font-family="Times,serif" font-size="14.00" fill="#000000">Mine</text>
<text text-anchor="middle" x="248" y="-23.8" font-family="Times,serif" font-size="14.00" fill="#000000">1.0 BTC</text>
</g>
<!-- fake1_out_mine&#45;&gt;fake2_in_mine -->
<!-- fake2_out_mine -->
<g id="node12" class="node">
<title>fake2_out_mine</title>
<polygon fill="#c0c0c0" stroke="#000000" points="380,-54 316,-54 316,-16 380,-16 380,-54"/>
<text text-anchor="middle" x="348" y="-38.8" font-family="Times,serif" font-size="14.00" fill="#000000">Mine</text>
<text text-anchor="middle" x="348" y="-23.8" font-family="Times,serif" font-size="14.00" fill="#000000">1.1 BTC</text>
</g>
<!-- fake2_in_mine&#45;&gt;fake2_out_mine -->
<!-- fake2_out_other -->
<g id="node11" class="node">
<title>fake2_out_other</title>
<polygon fill="none" stroke="#000000" points="380,-110 316,-110 316,-72 380,-72 380,-110"/>
<text text-anchor="middle" x="348" y="-94.8" font-family="Times,serif" font-size="14.00" fill="#000000">Other</text>
<text text-anchor="middle" x="348" y="-79.8" font-family="Times,serif" font-size="14.00" fill="#000000">0.9 BTC</text>
</g>
<!-- fake2_in_other&#45;&gt;fake2_out_other -->
<!-- fake2_out_label -->
<g id="node10" class="node">
<title>fake2_out_label</title>
<text text-anchor="middle" x="348" y="-136.3" font-family="Times,serif" font-size="14.00" fill="#000000">Outputs</text>
</g>
<!-- fake2_in_label&#45;&gt;fake2_out_label -->
<!-- actual_in_label -->
<g id="node15" class="node">
<title>actual_in_label</title>
<text text-anchor="middle" x="448" y="-136.3" font-family="Times,serif" font-size="14.00" fill="#000000">Inputs</text>
</g>
<!-- fake2_out_label&#45;&gt;actual_in_label -->
<!-- actual_in_mine2 -->
<g id="node14" class="node">
<title>actual_in_mine2</title>
<polygon fill="#c0c0c0" stroke="#000000" points="480,-110 416,-110 416,-72 480,-72 480,-110"/>
<text text-anchor="middle" x="448" y="-94.8" font-family="Times,serif" font-size="14.00" fill="#000000">Mine</text>
<text text-anchor="middle" x="448" y="-79.8" font-family="Times,serif" font-size="14.00" fill="#000000">1.0 BTC</text>
</g>
<!-- fake2_out_other&#45;&gt;actual_in_mine2 -->
<!-- actual_in_mine1 -->
<g id="node13" class="node">
<title>actual_in_mine1</title>
<polygon fill="#c0c0c0" stroke="#000000" points="480,-54 416,-54 416,-16 480,-16 480,-54"/>
<text text-anchor="middle" x="448" y="-38.8" font-family="Times,serif" font-size="14.00" fill="#000000">Mine</text>
<text text-anchor="middle" x="448" y="-23.8" font-family="Times,serif" font-size="14.00" fill="#000000">1.0 BTC</text>
</g>
<!-- fake2_out_mine&#45;&gt;actual_in_mine1 -->
<!-- actual_out_mine -->
<g id="node18" class="node">
<title>actual_out_mine</title>
<polygon fill="#c0c0c0" stroke="#000000" points="580,-54 516,-54 516,-16 580,-16 580,-54"/>
<text text-anchor="middle" x="548" y="-38.8" font-family="Times,serif" font-size="14.00" fill="#000000">Mine</text>
<text text-anchor="middle" x="548" y="-23.8" font-family="Times,serif" font-size="14.00" fill="#000000">1.1 BTC</text>
</g>
<!-- actual_in_mine1&#45;&gt;actual_out_mine -->
<!-- actual_out_other -->
<g id="node17" class="node">
<title>actual_out_other</title>
<polygon fill="none" stroke="#000000" points="580,-110 516,-110 516,-72 580,-72 580,-110"/>
<text text-anchor="middle" x="548" y="-94.8" font-family="Times,serif" font-size="14.00" fill="#000000">Other</text>
<text text-anchor="middle" x="548" y="-79.8" font-family="Times,serif" font-size="14.00" fill="#000000">0.9 BTC</text>
</g>
<!-- actual_in_mine2&#45;&gt;actual_out_other -->
<!-- actual_out_label -->
<g id="node16" class="node">
<title>actual_out_label</title>
<text text-anchor="middle" x="548" y="-136.3" font-family="Times,serif" font-size="14.00" fill="#000000">Outputs</text>
</g>
<!-- actual_in_label&#45;&gt;actual_out_label -->
</g>
</svg>
