<?xml version="1.0" encoding="UTF-8" standalone="no"?>
<!DOCTYPE svg PUBLIC "-//W3C//DTD SVG 1.1//EN"
 "http://www.w3.org/Graphics/SVG/1.1/DTD/svg11.dtd">
<!-- Generated by graphviz version 2.40.1 (20161225.0304)
 -->
<!-- Title: fake_coinjoin Pages: 1 -->
<svg width="619pt" height="233pt"
 viewBox="0.00 0.00 619.00 233.00" xmlns="http://www.w3.org/2000/svg" xmlns:xlink="http://www.w3.org/1999/xlink">
<g id="graph0" class="graph" transform="scale(1 1) rotate(0) translate(4 229)">
<title>fake_coinjoin</title>
<polygon fill="#ffffff" stroke="transparent" points="-4,4 -4,-229 615,-229 615,4 -4,4"/>
<text text-anchor="middle" x="305.5" y="-7.8" font-family="Times,serif" font-size="14.00" fill="#000000">Fee overpayment attack</text>
<g id="clust1" class="cluster">
<title>cluster_fake1</title>
<polygon fill="none" stroke="#000000" points="8,-31 8,-217 203,-217 203,-31 8,-31"/>
<text text-anchor="middle" x="105.5" y="-201.8" font-family="Times,serif" font-size="14.00" fill="#000000">Perceived transaction 1</text>
<text text-anchor="middle" x="105.5" y="-186.8" font-family="Times,serif" font-size="14.00" fill="#000000">Calculated fee: 0.0001 BTC</text>
</g>
<g id="clust2" class="cluster">
<title>cluster_fake2</title>
<polygon fill="none" stroke="#000000" points="223,-31 223,-217 418,-217 418,-31 223,-31"/>
<text text-anchor="middle" x="320.5" y="-201.8" font-family="Times,serif" font-size="14.00" fill="#000000">Perceived transaction 2</text>
<text text-anchor="middle" x="320.5" y="-186.8" font-family="Times,serif" font-size="14.00" fill="#000000">Calculated fee: 0.0001 BTC</text>
</g>
<g id="clust3" class="cluster">
<title>cluster_actual</title>
<polygon fill="none" stroke="#000000" points="438,-31 438,-217 603,-217 603,-31 438,-31"/>
<text text-anchor="middle" x="520.5" y="-201.8" font-family="Times,serif" font-size="14.00" fill="#000000">Actual transaction</text>
<text text-anchor="middle" x="520.5" y="-186.8" font-family="Times,serif" font-size="14.00" fill="#000000">Fee: 1 BTC</text>
</g>
<!-- fake1_in_label -->
<g id="node1" class="node">
<title>fake1_in_label</title>
<text text-anchor="middle" x="58" y="-155.3" font-family="Times,serif" font-size="14.00" fill="#000000">Inputs</text>
</g>
<!-- fake1_out_label -->
<g id="node2" class="node">
<title>fake1_out_label</title>
<text text-anchor="middle" x="165.5" y="-155.3" font-family="Times,serif" font-size="14.00" fill="#000000">Outputs</text>
</g>
<!-- fake1_in_label&#45;&gt;fake1_out_label -->
<!-- fake2_in_label -->
<g id="node9" class="node">
<title>fake2_in_label</title>
<text text-anchor="middle" x="273" y="-155.3" font-family="Times,serif" font-size="14.00" fill="#000000">Inputs</text>
</g>
<!-- fake1_out_label&#45;&gt;fake2_in_label -->
<!-- fake1_in_mine -->
<g id="node3" class="node">
<title>fake1_in_mine</title>
<polygon fill="#c0c0c0" stroke="#000000" points="85,-129 31,-129 31,-93 85,-93 85,-129"/>
<text text-anchor="middle" x="58" y="-107.3" font-family="Times,serif" font-size="14.00" fill="#000000">1 BTC</text>
</g>
<!-- fake1_out_other -->
<g id="node6" class="node">
<title>fake1_out_other</title>
</g>
<!-- fake1_in_mine&#45;&gt;fake1_out_other -->
<!-- fake1_in_other -->
<g id="node4" class="node">
<title>fake1_in_other</title>
<polygon fill="none" stroke="#000000" points="100,-75 16,-75 16,-39 100,-39 100,-75"/>
<text text-anchor="middle" x="58" y="-53.3" font-family="Times,serif" font-size="14.00" fill="#000000">0.0001 BTC</text>
</g>
<!-- fake1_out_mine -->
<g id="node5" class="node">
<title>fake1_out_mine</title>
<polygon fill="#c0c0c0" stroke="#000000" points="192.5,-75 138.5,-75 138.5,-39 192.5,-39 192.5,-75"/>
<text text-anchor="middle" x="165.5" y="-53.3" font-family="Times,serif" font-size="14.00" fill="#000000">1 BTC</text>
</g>
<!-- fake1_in_other&#45;&gt;fake1_out_mine -->
<!-- fake2_in_mine -->
<g id="node7" class="node">
<title>fake2_in_mine</title>
<polygon fill="#c0c0c0" stroke="#000000" points="300,-75 246,-75 246,-39 300,-39 300,-75"/>
<text text-anchor="middle" x="273" y="-53.3" font-family="Times,serif" font-size="14.00" fill="#000000">1 BTC</text>
</g>
<!-- fake1_out_mine&#45;&gt;fake2_in_mine -->
<!-- fake2_in_other -->
<g id="node8" class="node">
<title>fake2_in_other</title>
<polygon fill="none" stroke="#000000" points="315,-129 231,-129 231,-93 315,-93 315,-129"/>
<text text-anchor="middle" x="273" y="-107.3" font-family="Times,serif" font-size="14.00" fill="#000000">0.0001 BTC</text>
</g>
<!-- fake1_out_other&#45;&gt;fake2_in_other -->
<!-- fake2_out_mine -->
<g id="node12" class="node">
<title>fake2_out_mine</title>
<polygon fill="#c0c0c0" stroke="#000000" points="407.5,-75 353.5,-75 353.5,-39 407.5,-39 407.5,-75"/>
<text text-anchor="middle" x="380.5" y="-53.3" font-family="Times,serif" font-size="14.00" fill="#000000">1 BTC</text>
</g>
<!-- fake2_in_mine&#45;&gt;fake2_out_mine -->
<!-- fake2_out_other -->
<g id="node11" class="node">
<title>fake2_out_other</title>
</g>
<!-- fake2_in_other&#45;&gt;fake2_out_other -->
<!-- fake2_out_label -->
<g id="node10" class="node">
<title>fake2_out_label</title>
<text text-anchor="middle" x="380.5" y="-155.3" font-family="Times,serif" font-size="14.00" fill="#000000">Outputs</text>
</g>
<!-- fake2_in_label&#45;&gt;fake2_out_label -->
<!-- actual_in_label -->
<g id="node15" class="node">
<title>actual_in_label</title>
<text text-anchor="middle" x="473" y="-155.3" font-family="Times,serif" font-size="14.00" fill="#000000">Inputs</text>
</g>
<!-- fake2_out_label&#45;&gt;actual_in_label -->
<!-- actual_in_mine2 -->
<g id="node14" class="node">
<title>actual_in_mine2</title>
<polygon fill="#c0c0c0" stroke="#000000" points="500,-129 446,-129 446,-93 500,-93 500,-129"/>
<text text-anchor="middle" x="473" y="-107.3" font-family="Times,serif" font-size="14.00" fill="#000000">1 BTC</text>
</g>
<!-- fake2_out_other&#45;&gt;actual_in_mine2 -->
<!-- actual_in_mine1 -->
<g id="node13" class="node">
<title>actual_in_mine1</title>
<polygon fill="#c0c0c0" stroke="#000000" points="500,-75 446,-75 446,-39 500,-39 500,-75"/>
<text text-anchor="middle" x="473" y="-53.3" font-family="Times,serif" font-size="14.00" fill="#000000">1 BTC</text>
</g>
<!-- fake2_out_mine&#45;&gt;actual_in_mine1 -->
<!-- actual_out_mine -->
<g id="node18" class="node">
<title>actual_out_mine</title>
<polygon fill="#c0c0c0" stroke="#000000" points="592.5,-75 538.5,-75 538.5,-39 592.5,-39 592.5,-75"/>
<text text-anchor="middle" x="565.5" y="-53.3" font-family="Times,serif" font-size="14.00" fill="#000000">1 BTC</text>
</g>
<!-- actual_in_mine1&#45;&gt;actual_out_mine -->
<!-- actual_out_other -->
<g id="node17" class="node">
<title>actual_out_other</title>
</g>
<!-- actual_in_mine2&#45;&gt;actual_out_other -->
<!-- actual_out_label -->
<g id="node16" class="node">
<title>actual_out_label</title>
<text text-anchor="middle" x="565.5" y="-155.3" font-family="Times,serif" font-size="14.00" fill="#000000">Outputs</text>
</g>
<!-- actual_in_label&#45;&gt;actual_out_label -->
</g>
</svg>
