<?xml version="1.0" encoding="UTF-8" standalone="no"?>
<!DOCTYPE svg PUBLIC "-//W3C//DTD SVG 1.1//EN"
 "http://www.w3.org/Graphics/SVG/1.1/DTD/svg11.dtd">
<!-- Generated by graphviz version 2.40.1 (20161225.0304)
 -->
<!-- Title: fake_coinjoin Pages: 1 -->
<svg width="604pt" height="222pt"
 viewBox="0.00 0.00 604.00 222.00" xmlns="http://www.w3.org/2000/svg" xmlns:xlink="http://www.w3.org/1999/xlink">
<g id="graph0" class="graph" transform="scale(1 1) rotate(0) translate(4 218)">
<title>fake_coinjoin</title>
<polygon fill="#ffffff" stroke="transparent" points="-4,4 -4,-218 600,-218 600,4 -4,4"/>
<text text-anchor="middle" x="298" y="-7.8" font-family="Times,serif" font-size="14.00" fill="#000000">Blinded ownership attack</text>
<g id="clust1" class="cluster">
<title>cluster_fake1</title>
<polygon fill="none" stroke="#000000" points="8,-31 8,-206 188,-206 188,-31 8,-31"/>
<text text-anchor="middle" x="98" y="-190.8" font-family="Times,serif" font-size="14.00" fill="#000000">Perceived transaction 1</text>
</g>
<g id="clust2" class="cluster">
<title>cluster_fake2</title>
<polygon fill="none" stroke="#000000" points="208,-31 208,-206 388,-206 388,-31 208,-31"/>
<text text-anchor="middle" x="298" y="-190.8" font-family="Times,serif" font-size="14.00" fill="#000000">Perceived transaction 2</text>
</g>
<g id="clust3" class="cluster">
<title>cluster_actual</title>
<polygon fill="none" stroke="#000000" points="408,-31 408,-206 588,-206 588,-31 408,-31"/>
<text text-anchor="middle" x="498" y="-190.8" font-family="Times,serif" font-size="14.00" fill="#000000">Actual transaction</text>
</g>
<!-- fake1_in_label -->
<g id="node1" class="node">
<title>fake1_in_label</title>
<text text-anchor="middle" x="48" y="-159.3" font-family="Times,serif" font-size="14.00" fill="#000000">Inputs</text>
</g>
<!-- fake1_out_label -->
<g id="node2" class="node">
<title>fake1_out_label</title>
<text text-anchor="middle" x="148" y="-159.3" font-family="Times,serif" font-size="14.00" fill="#000000">Outputs</text>
</g>
<!-- fake1_in_label&#45;&gt;fake1_out_label -->
<!-- fake2_in_label -->
<g id="node9" class="node">
<title>fake2_in_label</title>
<text text-anchor="middle" x="248" y="-159.3" font-family="Times,serif" font-size="14.00" fill="#000000">Inputs</text>
</g>
<!-- fake1_out_label&#45;&gt;fake2_in_label -->
<!-- fake1_in_mine -->
<g id="node3" class="node">
<title>fake1_in_mine</title>
<polygon fill="#c0c0c0" stroke="#000000" points="80,-133 16,-133 16,-95 80,-95 80,-133"/>
<text text-anchor="middle" x="48" y="-117.8" font-family="Times,serif" font-size="14.00" fill="#000000">Mine</text>
<text text-anchor="middle" x="48" y="-102.8" font-family="Times,serif" font-size="14.00" fill="#000000">1.0 BTC</text>
</g>
<!-- fake1_out_other -->
<g id="node4" class="node">
<title>fake1_out_other</title>
<polygon fill="none" stroke="#000000" points="180,-133 116,-133 116,-95 180,-95 180,-133"/>
<text text-anchor="middle" x="148" y="-117.8" font-family="Times,serif" font-size="14.00" fill="#000000">Other</text>
<text text-anchor="middle" x="148" y="-102.8" font-family="Times,serif" font-size="14.00" fill="#000000">0.9 BTC</text>
</g>
<!-- fake1_in_mine&#45;&gt;fake1_out_other -->
<!-- fake2_in_other -->
<g id="node8" class="node">
<title>fake2_in_other</title>
<polygon fill="none" stroke="#000000" points="280,-133 216,-133 216,-95 280,-95 280,-133"/>
<text text-anchor="middle" x="248" y="-117.8" font-family="Times,serif" font-size="14.00" fill="#000000">Other</text>
<text text-anchor="middle" x="248" y="-102.8" font-family="Times,serif" font-size="14.00" fill="#000000">1.0 BTC</text>
</g>
<!-- fake1_out_other&#45;&gt;fake2_in_other -->
<!-- fake1_in_other -->
<g id="node5" class="node">
<title>fake1_in_other</title>
<polygon fill="none" stroke="#000000" points="80,-77 16,-77 16,-39 80,-39 80,-77"/>
<text text-anchor="middle" x="48" y="-61.8" font-family="Times,serif" font-size="14.00" fill="#000000">Other</text>
<text text-anchor="middle" x="48" y="-46.8" font-family="Times,serif" font-size="14.00" fill="#000000">1.0 BTC</text>
</g>
<!-- fake1_out_mine -->
<g id="node6" class="node">
<title>fake1_out_mine</title>
<polygon fill="#c0c0c0" stroke="#000000" points="180,-77 116,-77 116,-39 180,-39 180,-77"/>
<text text-anchor="middle" x="148" y="-61.8" font-family="Times,serif" font-size="14.00" fill="#000000">Mine</text>
<text text-anchor="middle" x="148" y="-46.8" font-family="Times,serif" font-size="14.00" fill="#000000">1.1 BTC</text>
</g>
<!-- fake1_in_other&#45;&gt;fake1_out_mine -->
<!-- fake2_in_mine -->
<g id="node7" class="node">
<title>fake2_in_mine</title>
<polygon fill="#c0c0c0" stroke="#000000" points="280,-77 216,-77 216,-39 280,-39 280,-77"/>
<text text-anchor="middle" x="248" y="-61.8" font-family="Times,serif" font-size="14.00" fill="#000000">Mine</text>
<text text-anchor="middle" x="248" y="-46.8" font-family="Times,serif" font-size="14.00" fill="#000000">1.0 BTC</text>
</g>
<!-- fake1_out_mine&#45;&gt;fake2_in_mine -->
<!-- fake2_out_mine -->
<g id="node12" class="node">
<title>fake2_out_mine</title>
<polygon fill="#c0c0c0" stroke="#000000" points="380,-77 316,-77 316,-39 380,-39 380,-77"/>
<text text-anchor="middle" x="348" y="-61.8" font-family="Times,serif" font-size="14.00" fill="#000000">Mine</text>
<text text-anchor="middle" x="348" y="-46.8" font-family="Times,serif" font-size="14.00" fill="#000000">1.1 BTC</text>
</g>
<!-- fake2_in_mine&#45;&gt;fake2_out_mine -->
<!-- fake2_out_other -->
<g id="node11" class="node">
<title>fake2_out_other</title>
<polygon fill="none" stroke="#000000" points="380,-133 316,-133 316,-95 380,-95 380,-133"/>
<text text-anchor="middle" x="348" y="-117.8" font-family="Times,serif" font-size="14.00" fill="#000000">Other</text>
<text text-anchor="middle" x="348" y="-102.8" font-family="Times,serif" font-size="14.00" fill="#000000">0.9 BTC</text>
</g>
<!-- fake2_in_other&#45;&gt;fake2_out_other -->
<!-- fake2_out_label -->
<g id="node10" class="node">
<title>fake2_out_label</title>
<text text-anchor="middle" x="348" y="-159.3" font-family="Times,serif" font-size="14.00" fill="#000000">Outputs</text>
</g>
<!-- fake2_in_label&#45;&gt;fake2_out_label -->
<!-- actual_in_label -->
<g id="node15" class="node">
<title>actual_in_label</title>
<text text-anchor="middle" x="448" y="-159.3" font-family="Times,serif" font-size="14.00" fill="#000000">Inputs</text>
</g>
<!-- fake2_out_label&#45;&gt;actual_in_label -->
<!-- actual_in_mine2 -->
<g id="node14" class="node">
<title>actual_in_mine2</title>
<polygon fill="#c0c0c0" stroke="#000000" points="480,-133 416,-133 416,-95 480,-95 480,-133"/>
<text text-anchor="middle" x="448" y="-117.8" font-family="Times,serif" font-size="14.00" fill="#000000">Mine</text>
<text text-anchor="middle" x="448" y="-102.8" font-family="Times,serif" font-size="14.00" fill="#000000">1.0 BTC</text>
</g>
<!-- fake2_out_other&#45;&gt;actual_in_mine2 -->
<!-- actual_in_mine1 -->
<g id="node13" class="node">
<title>actual_in_mine1</title>
<polygon fill="#c0c0c0" stroke="#000000" points="480,-77 416,-77 416,-39 480,-39 480,-77"/>
<text text-anchor="middle" x="448" y="-61.8" font-family="Times,serif" font-size="14.00" fill="#000000">Mine</text>
<text text-anchor="middle" x="448" y="-46.8" font-family="Times,serif" font-size="14.00" fill="#000000">1.0 BTC</text>
</g>
<!-- fake2_out_mine&#45;&gt;actual_in_mine1 -->
<!-- actual_out_mine -->
<g id="node18" class="node">
<title>actual_out_mine</title>
<polygon fill="#c0c0c0" stroke="#000000" points="580,-77 516,-77 516,-39 580,-39 580,-77"/>
<text text-anchor="middle" x="548" y="-61.8" font-family="Times,serif" font-size="14.00" fill="#000000">Mine</text>
<text text-anchor="middle" x="548" y="-46.8" font-family="Times,serif" font-size="14.00" fill="#000000">1.1 BTC</text>
</g>
<!-- actual_in_mine1&#45;&gt;actual_out_mine -->
<!-- actual_out_other -->
<g id="node17" class="node">
<title>actual_out_other</title>
<polygon fill="none" stroke="#000000" points="580,-133 516,-133 516,-95 580,-95 580,-133"/>
<text text-anchor="middle" x="548" y="-117.8" font-family="Times,serif" font-size="14.00" fill="#000000">Other</text>
<text text-anchor="middle" x="548" y="-102.8" font-family="Times,serif" font-size="14.00" fill="#000000">0.9 BTC</text>
</g>
<!-- actual_in_mine2&#45;&gt;actual_out_other -->
<!-- actual_out_label -->
<g id="node16" class="node">
<title>actual_out_label</title>
<text text-anchor="middle" x="548" y="-159.3" font-family="Times,serif" font-size="14.00" fill="#000000">Outputs</text>
</g>
<!-- actual_in_label&#45;&gt;actual_out_label -->
</g>
</svg>
