<?xml version="1.0" encoding="UTF-8" standalone="no"?>
<!DOCTYPE svg PUBLIC "-//W3C//DTD SVG 1.1//EN"
 "http://www.w3.org/Graphics/SVG/1.1/DTD/svg11.dtd">
<!-- Generated by graphviz version 2.43.0 (0)
 -->
<!-- Title: txes Pages: 1 -->
<svg width="1718pt" height="299pt"
 viewBox="0.00 0.00 1718.00 299.00" xmlns="http://www.w3.org/2000/svg" xmlns:xlink="http://www.w3.org/1999/xlink">
<g id="graph0" class="graph" transform="scale(1 1) rotate(0) translate(4 295)">
<title>txes</title>
<text text-anchor="middle" x="855" y="-7.8" font-family="Times,serif" font-size="14.00">Combinatorial explosion in the number of presigned transactions that need to be created to ensure each member of the group can trustlessly withdraw their funds</text>
<!-- A4 -->
<g id="node1" class="node">
<title>A4</title>
<polygon fill="none" stroke="black" points="630,-75 576,-75 576,-39 630,-39 630,-75"/>
<text text-anchor="middle" x="603" y="-53.3" font-family="Times,serif" font-size="14.00">A</text>
</g>
<!-- A5 -->
<g id="node2" class="node">
<title>A5</title>
<polygon fill="none" stroke="black" points="774,-75 720,-75 720,-39 774,-39 774,-75"/>
<text text-anchor="middle" x="747" y="-53.3" font-family="Times,serif" font-size="14.00">A</text>
</g>
<!-- A7 -->
<g id="node3" class="node">
<title>A7</title>
<polygon fill="none" stroke="black" points="1062,-75 1008,-75 1008,-39 1062,-39 1062,-75"/>
<text text-anchor="middle" x="1035" y="-53.3" font-family="Times,serif" font-size="14.00">A</text>
</g>
<!-- A8 -->
<g id="node4" class="node">
<title>A8</title>
<polygon fill="none" stroke="black" points="1206,-75 1152,-75 1152,-39 1206,-39 1206,-75"/>
<text text-anchor="middle" x="1179" y="-53.3" font-family="Times,serif" font-size="14.00">A</text>
</g>
<!-- A10 -->
<g id="node5" class="node">
<title>A10</title>
<polygon fill="none" stroke="black" points="1494,-75 1440,-75 1440,-39 1494,-39 1494,-75"/>
<text text-anchor="middle" x="1467" y="-53.3" font-family="Times,serif" font-size="14.00">A</text>
</g>
<!-- A11 -->
<g id="node6" class="node">
<title>A11</title>
<polygon fill="none" stroke="black" points="1638,-75 1584,-75 1584,-39 1638,-39 1638,-75"/>
<text text-anchor="middle" x="1611" y="-53.3" font-family="Times,serif" font-size="14.00">A</text>
</g>
<!-- B1 -->
<g id="node7" class="node">
<title>B1</title>
<polygon fill="none" stroke="black" points="198,-75 144,-75 144,-39 198,-39 198,-75"/>
<text text-anchor="middle" x="171" y="-53.3" font-family="Times,serif" font-size="14.00">B</text>
</g>
<!-- B2 -->
<g id="node8" class="node">
<title>B2</title>
<polygon fill="none" stroke="black" points="342,-75 288,-75 288,-39 342,-39 342,-75"/>
<text text-anchor="middle" x="315" y="-53.3" font-family="Times,serif" font-size="14.00">B</text>
</g>
<!-- B6 -->
<g id="node9" class="node">
<title>B6</title>
<polygon fill="none" stroke="black" points="918,-75 864,-75 864,-39 918,-39 918,-75"/>
<text text-anchor="middle" x="891" y="-53.3" font-family="Times,serif" font-size="14.00">B</text>
</g>
<!-- B8 -->
<g id="node10" class="node">
<title>B8</title>
<polygon fill="none" stroke="black" points="1278,-75 1224,-75 1224,-39 1278,-39 1278,-75"/>
<text text-anchor="middle" x="1251" y="-53.3" font-family="Times,serif" font-size="14.00">B</text>
</g>
<!-- B9 -->
<g id="node11" class="node">
<title>B9</title>
<polygon fill="none" stroke="black" points="1350,-75 1296,-75 1296,-39 1350,-39 1350,-75"/>
<text text-anchor="middle" x="1323" y="-53.3" font-family="Times,serif" font-size="14.00">B</text>
</g>
<!-- B11 -->
<g id="node12" class="node">
<title>B11</title>
<polygon fill="none" stroke="black" points="1710,-75 1656,-75 1656,-39 1710,-39 1710,-75"/>
<text text-anchor="middle" x="1683" y="-53.3" font-family="Times,serif" font-size="14.00">B</text>
</g>
<!-- C0 -->
<g id="node13" class="node">
<title>C0</title>
<polygon fill="none" stroke="black" points="54,-75 0,-75 0,-39 54,-39 54,-75"/>
<text text-anchor="middle" x="27" y="-53.3" font-family="Times,serif" font-size="14.00">C</text>
</g>
<!-- C2 -->
<g id="node14" class="node">
<title>C2</title>
<polygon fill="none" stroke="black" points="414,-75 360,-75 360,-39 414,-39 414,-75"/>
<text text-anchor="middle" x="387" y="-53.3" font-family="Times,serif" font-size="14.00">C</text>
</g>
<!-- C3 -->
<g id="node15" class="node">
<title>C3</title>
<polygon fill="none" stroke="black" points="486,-75 432,-75 432,-39 486,-39 486,-75"/>
<text text-anchor="middle" x="459" y="-53.3" font-family="Times,serif" font-size="14.00">C</text>
</g>
<!-- C5 -->
<g id="node16" class="node">
<title>C5</title>
<polygon fill="none" stroke="black" points="846,-75 792,-75 792,-39 846,-39 846,-75"/>
<text text-anchor="middle" x="819" y="-53.3" font-family="Times,serif" font-size="14.00">C</text>
</g>
<!-- C9 -->
<g id="node17" class="node">
<title>C9</title>
<polygon fill="none" stroke="black" points="1422,-75 1368,-75 1368,-39 1422,-39 1422,-75"/>
<text text-anchor="middle" x="1395" y="-53.3" font-family="Times,serif" font-size="14.00">C</text>
</g>
<!-- C10 -->
<g id="node18" class="node">
<title>C10</title>
<polygon fill="none" stroke="black" points="1566,-75 1512,-75 1512,-39 1566,-39 1566,-75"/>
<text text-anchor="middle" x="1539" y="-53.3" font-family="Times,serif" font-size="14.00">C</text>
</g>
<!-- D0 -->
<g id="node19" class="node">
<title>D0</title>
<polygon fill="none" stroke="black" points="126,-75 72,-75 72,-39 126,-39 126,-75"/>
<text text-anchor="middle" x="99" y="-53.3" font-family="Times,serif" font-size="14.00">D</text>
</g>
<!-- D1 -->
<g id="node20" class="node">
<title>D1</title>
<polygon fill="none" stroke="black" points="270,-75 216,-75 216,-39 270,-39 270,-75"/>
<text text-anchor="middle" x="243" y="-53.3" font-family="Times,serif" font-size="14.00">D</text>
</g>
<!-- D3 -->
<g id="node21" class="node">
<title>D3</title>
<polygon fill="none" stroke="black" points="558,-75 504,-75 504,-39 558,-39 558,-75"/>
<text text-anchor="middle" x="531" y="-53.3" font-family="Times,serif" font-size="14.00">D</text>
</g>
<!-- D4 -->
<g id="node22" class="node">
<title>D4</title>
<polygon fill="none" stroke="black" points="702,-75 648,-75 648,-39 702,-39 702,-75"/>
<text text-anchor="middle" x="675" y="-53.3" font-family="Times,serif" font-size="14.00">D</text>
</g>
<!-- D6 -->
<g id="node23" class="node">
<title>D6</title>
<polygon fill="none" stroke="black" points="990,-75 936,-75 936,-39 990,-39 990,-75"/>
<text text-anchor="middle" x="963" y="-53.3" font-family="Times,serif" font-size="14.00">D</text>
</g>
<!-- D7 -->
<g id="node24" class="node">
<title>D7</title>
<polygon fill="none" stroke="black" points="1134,-75 1080,-75 1080,-39 1134,-39 1134,-75"/>
<text text-anchor="middle" x="1107" y="-53.3" font-family="Times,serif" font-size="14.00">D</text>
</g>
<!-- BCD_A -->
<g id="node25" class="node">
<title>BCD_A</title>
<polygon fill="none" stroke="black" points="306,-219 252,-219 252,-183 306,-183 306,-219"/>
<text text-anchor="middle" x="279" y="-197.3" font-family="Times,serif" font-size="14.00">BCD</text>
</g>
<!-- CD_B -->
<g id="node29" class="node">
<title>CD_B</title>
<polygon fill="none" stroke="black" points="126,-147 72,-147 72,-111 126,-111 126,-147"/>
<text text-anchor="middle" x="99" y="-125.3" font-family="Times,serif" font-size="14.00">CD</text>
</g>
<!-- BCD_A&#45;&gt;CD_B -->
<g id="edge5" class="edge">
<title>BCD_A&#45;&gt;CD_B</title>
<path fill="none" stroke="black" d="M251.66,-201C201.31,-201 99,-201 99,-201 99,-201 99,-157.17 99,-157.17"/>
<polygon fill="black" stroke="black" points="102.5,-157.17 99,-147.17 95.5,-157.17 102.5,-157.17"/>
</g>
<!-- BD_C -->
<g id="node30" class="node">
<title>BD_C</title>
<polygon fill="none" stroke="black" points="270,-147 216,-147 216,-111 270,-111 270,-147"/>
<text text-anchor="middle" x="243" y="-125.3" font-family="Times,serif" font-size="14.00">BD</text>
</g>
<!-- BCD_A&#45;&gt;BD_C -->
<g id="edge6" class="edge">
<title>BCD_A&#45;&gt;BD_C</title>
<path fill="none" stroke="black" d="M261,-182.83C261,-182.83 261,-157.41 261,-157.41"/>
<polygon fill="black" stroke="black" points="264.5,-157.41 261,-147.41 257.5,-157.41 264.5,-157.41"/>
</g>
<!-- BC_D -->
<g id="node31" class="node">
<title>BC_D</title>
<polygon fill="none" stroke="black" points="342,-147 288,-147 288,-111 342,-111 342,-147"/>
<text text-anchor="middle" x="315" y="-125.3" font-family="Times,serif" font-size="14.00">BC</text>
</g>
<!-- BCD_A&#45;&gt;BC_D -->
<g id="edge7" class="edge">
<title>BCD_A&#45;&gt;BC_D</title>
<path fill="none" stroke="black" d="M297,-182.83C297,-182.83 297,-157.41 297,-157.41"/>
<polygon fill="black" stroke="black" points="300.5,-157.41 297,-147.41 293.5,-157.41 300.5,-157.41"/>
</g>
<!-- ACD_B -->
<g id="node26" class="node">
<title>ACD_B</title>
<polygon fill="none" stroke="black" points="738,-219 684,-219 684,-183 738,-183 738,-219"/>
<text text-anchor="middle" x="711" y="-197.3" font-family="Times,serif" font-size="14.00">ACD</text>
</g>
<!-- CD_A -->
<g id="node32" class="node">
<title>CD_A</title>
<polygon fill="none" stroke="black" points="558,-147 504,-147 504,-111 558,-111 558,-147"/>
<text text-anchor="middle" x="531" y="-125.3" font-family="Times,serif" font-size="14.00">CD</text>
</g>
<!-- ACD_B&#45;&gt;CD_A -->
<g id="edge14" class="edge">
<title>ACD_B&#45;&gt;CD_A</title>
<path fill="none" stroke="black" d="M683.66,-201C633.31,-201 531,-201 531,-201 531,-201 531,-157.17 531,-157.17"/>
<polygon fill="black" stroke="black" points="534.5,-157.17 531,-147.17 527.5,-157.17 534.5,-157.17"/>
</g>
<!-- AD_C -->
<g id="node33" class="node">
<title>AD_C</title>
<polygon fill="none" stroke="black" points="702,-147 648,-147 648,-111 702,-111 702,-147"/>
<text text-anchor="middle" x="675" y="-125.3" font-family="Times,serif" font-size="14.00">AD</text>
</g>
<!-- ACD_B&#45;&gt;AD_C -->
<g id="edge15" class="edge">
<title>ACD_B&#45;&gt;AD_C</title>
<path fill="none" stroke="black" d="M693,-182.83C693,-182.83 693,-157.41 693,-157.41"/>
<polygon fill="black" stroke="black" points="696.5,-157.41 693,-147.41 689.5,-157.41 696.5,-157.41"/>
</g>
<!-- AC_D -->
<g id="node34" class="node">
<title>AC_D</title>
<polygon fill="none" stroke="black" points="774,-147 720,-147 720,-111 774,-111 774,-147"/>
<text text-anchor="middle" x="747" y="-125.3" font-family="Times,serif" font-size="14.00">AC</text>
</g>
<!-- ACD_B&#45;&gt;AC_D -->
<g id="edge16" class="edge">
<title>ACD_B&#45;&gt;AC_D</title>
<path fill="none" stroke="black" d="M729,-182.83C729,-182.83 729,-157.41 729,-157.41"/>
<polygon fill="black" stroke="black" points="732.5,-157.41 729,-147.41 725.5,-157.41 732.5,-157.41"/>
</g>
<!-- ABD_C -->
<g id="node27" class="node">
<title>ABD_C</title>
<polygon fill="none" stroke="black" points="1026,-219 972,-219 972,-183 1026,-183 1026,-219"/>
<text text-anchor="middle" x="999" y="-197.3" font-family="Times,serif" font-size="14.00">ABD</text>
</g>
<!-- BD_A -->
<g id="node35" class="node">
<title>BD_A</title>
<polygon fill="none" stroke="black" points="990,-147 936,-147 936,-111 990,-111 990,-147"/>
<text text-anchor="middle" x="963" y="-125.3" font-family="Times,serif" font-size="14.00">BD</text>
</g>
<!-- ABD_C&#45;&gt;BD_A -->
<g id="edge23" class="edge">
<title>ABD_C&#45;&gt;BD_A</title>
<path fill="none" stroke="black" d="M981,-182.83C981,-182.83 981,-157.41 981,-157.41"/>
<polygon fill="black" stroke="black" points="984.5,-157.41 981,-147.41 977.5,-157.41 984.5,-157.41"/>
</g>
<!-- AD_B -->
<g id="node36" class="node">
<title>AD_B</title>
<polygon fill="none" stroke="black" points="1062,-147 1008,-147 1008,-111 1062,-111 1062,-147"/>
<text text-anchor="middle" x="1035" y="-125.3" font-family="Times,serif" font-size="14.00">AD</text>
</g>
<!-- ABD_C&#45;&gt;AD_B -->
<g id="edge24" class="edge">
<title>ABD_C&#45;&gt;AD_B</title>
<path fill="none" stroke="black" d="M1017,-182.83C1017,-182.83 1017,-157.41 1017,-157.41"/>
<polygon fill="black" stroke="black" points="1020.5,-157.41 1017,-147.41 1013.5,-157.41 1020.5,-157.41"/>
</g>
<!-- AB_D -->
<g id="node37" class="node">
<title>AB_D</title>
<polygon fill="none" stroke="black" points="1206,-147 1152,-147 1152,-111 1206,-111 1206,-147"/>
<text text-anchor="middle" x="1179" y="-125.3" font-family="Times,serif" font-size="14.00">AB</text>
</g>
<!-- ABD_C&#45;&gt;AB_D -->
<g id="edge25" class="edge">
<title>ABD_C&#45;&gt;AB_D</title>
<path fill="none" stroke="black" d="M1026.34,-201C1076.69,-201 1179,-201 1179,-201 1179,-201 1179,-157.17 1179,-157.17"/>
<polygon fill="black" stroke="black" points="1182.5,-157.17 1179,-147.17 1175.5,-157.17 1182.5,-157.17"/>
</g>
<!-- ABC_D -->
<g id="node28" class="node">
<title>ABC_D</title>
<polygon fill="none" stroke="black" points="1458,-219 1404,-219 1404,-183 1458,-183 1458,-219"/>
<text text-anchor="middle" x="1431" y="-197.3" font-family="Times,serif" font-size="14.00">ABC</text>
</g>
<!-- BC_A -->
<g id="node38" class="node">
<title>BC_A</title>
<polygon fill="none" stroke="black" points="1422,-147 1368,-147 1368,-111 1422,-111 1422,-147"/>
<text text-anchor="middle" x="1395" y="-125.3" font-family="Times,serif" font-size="14.00">BC</text>
</g>
<!-- ABC_D&#45;&gt;BC_A -->
<g id="edge32" class="edge">
<title>ABC_D&#45;&gt;BC_A</title>
<path fill="none" stroke="black" d="M1413,-182.83C1413,-182.83 1413,-157.41 1413,-157.41"/>
<polygon fill="black" stroke="black" points="1416.5,-157.41 1413,-147.41 1409.5,-157.41 1416.5,-157.41"/>
</g>
<!-- AC_B -->
<g id="node39" class="node">
<title>AC_B</title>
<polygon fill="none" stroke="black" points="1494,-147 1440,-147 1440,-111 1494,-111 1494,-147"/>
<text text-anchor="middle" x="1467" y="-125.3" font-family="Times,serif" font-size="14.00">AC</text>
</g>
<!-- ABC_D&#45;&gt;AC_B -->
<g id="edge33" class="edge">
<title>ABC_D&#45;&gt;AC_B</title>
<path fill="none" stroke="black" d="M1449,-182.83C1449,-182.83 1449,-157.41 1449,-157.41"/>
<polygon fill="black" stroke="black" points="1452.5,-157.41 1449,-147.41 1445.5,-157.41 1452.5,-157.41"/>
</g>
<!-- AB_C -->
<g id="node40" class="node">
<title>AB_C</title>
<polygon fill="none" stroke="black" points="1638,-147 1584,-147 1584,-111 1638,-111 1638,-147"/>
<text text-anchor="middle" x="1611" y="-125.3" font-family="Times,serif" font-size="14.00">AB</text>
</g>
<!-- ABC_D&#45;&gt;AB_C -->
<g id="edge34" class="edge">
<title>ABC_D&#45;&gt;AB_C</title>
<path fill="none" stroke="black" d="M1458.34,-201C1508.69,-201 1611,-201 1611,-201 1611,-201 1611,-157.17 1611,-157.17"/>
<polygon fill="black" stroke="black" points="1614.5,-157.17 1611,-147.17 1607.5,-157.17 1614.5,-157.17"/>
</g>
<!-- CD_B&#45;&gt;C0 -->
<g id="edge8" class="edge">
<title>CD_B&#45;&gt;C0</title>
<path fill="none" stroke="black" d="M71.78,-129C51.39,-129 27,-129 27,-129 27,-129 27,-85.17 27,-85.17"/>
<polygon fill="black" stroke="black" points="30.5,-85.17 27,-75.17 23.5,-85.17 30.5,-85.17"/>
</g>
<!-- CD_B&#45;&gt;D0 -->
<g id="edge9" class="edge">
<title>CD_B&#45;&gt;D0</title>
<path fill="none" stroke="black" d="M99,-110.83C99,-110.83 99,-85.41 99,-85.41"/>
<polygon fill="black" stroke="black" points="102.5,-85.41 99,-75.41 95.5,-85.41 102.5,-85.41"/>
</g>
<!-- BD_C&#45;&gt;B1 -->
<g id="edge10" class="edge">
<title>BD_C&#45;&gt;B1</title>
<path fill="none" stroke="black" d="M215.78,-129C195.39,-129 171,-129 171,-129 171,-129 171,-85.17 171,-85.17"/>
<polygon fill="black" stroke="black" points="174.5,-85.17 171,-75.17 167.5,-85.17 174.5,-85.17"/>
</g>
<!-- BD_C&#45;&gt;D1 -->
<g id="edge11" class="edge">
<title>BD_C&#45;&gt;D1</title>
<path fill="none" stroke="black" d="M243,-110.83C243,-110.83 243,-85.41 243,-85.41"/>
<polygon fill="black" stroke="black" points="246.5,-85.41 243,-75.41 239.5,-85.41 246.5,-85.41"/>
</g>
<!-- BC_D&#45;&gt;B2 -->
<g id="edge12" class="edge">
<title>BC_D&#45;&gt;B2</title>
<path fill="none" stroke="black" d="M315,-110.83C315,-110.83 315,-85.41 315,-85.41"/>
<polygon fill="black" stroke="black" points="318.5,-85.41 315,-75.41 311.5,-85.41 318.5,-85.41"/>
</g>
<!-- BC_D&#45;&gt;C2 -->
<g id="edge13" class="edge">
<title>BC_D&#45;&gt;C2</title>
<path fill="none" stroke="black" d="M342.22,-123C362.61,-123 387,-123 387,-123 387,-123 387,-85.03 387,-85.03"/>
<polygon fill="black" stroke="black" points="390.5,-85.03 387,-75.03 383.5,-85.03 390.5,-85.03"/>
</g>
<!-- CD_A&#45;&gt;C3 -->
<g id="edge17" class="edge">
<title>CD_A&#45;&gt;C3</title>
<path fill="none" stroke="black" d="M503.78,-135C483.39,-135 459,-135 459,-135 459,-135 459,-85.09 459,-85.09"/>
<polygon fill="black" stroke="black" points="462.5,-85.09 459,-75.09 455.5,-85.09 462.5,-85.09"/>
</g>
<!-- CD_A&#45;&gt;D3 -->
<g id="edge18" class="edge">
<title>CD_A&#45;&gt;D3</title>
<path fill="none" stroke="black" d="M531,-110.83C531,-110.83 531,-85.41 531,-85.41"/>
<polygon fill="black" stroke="black" points="534.5,-85.41 531,-75.41 527.5,-85.41 534.5,-85.41"/>
</g>
<!-- AD_C&#45;&gt;A4 -->
<g id="edge19" class="edge">
<title>AD_C&#45;&gt;A4</title>
<path fill="none" stroke="black" d="M647.78,-129C627.39,-129 603,-129 603,-129 603,-129 603,-85.17 603,-85.17"/>
<polygon fill="black" stroke="black" points="606.5,-85.17 603,-75.17 599.5,-85.17 606.5,-85.17"/>
</g>
<!-- AD_C&#45;&gt;D4 -->
<g id="edge20" class="edge">
<title>AD_C&#45;&gt;D4</title>
<path fill="none" stroke="black" d="M675,-110.83C675,-110.83 675,-85.41 675,-85.41"/>
<polygon fill="black" stroke="black" points="678.5,-85.41 675,-75.41 671.5,-85.41 678.5,-85.41"/>
</g>
<!-- AC_D&#45;&gt;A5 -->
<g id="edge21" class="edge">
<title>AC_D&#45;&gt;A5</title>
<path fill="none" stroke="black" d="M747,-110.83C747,-110.83 747,-85.41 747,-85.41"/>
<polygon fill="black" stroke="black" points="750.5,-85.41 747,-75.41 743.5,-85.41 750.5,-85.41"/>
</g>
<!-- AC_D&#45;&gt;C5 -->
<g id="edge22" class="edge">
<title>AC_D&#45;&gt;C5</title>
<path fill="none" stroke="black" d="M774.22,-123C794.61,-123 819,-123 819,-123 819,-123 819,-85.03 819,-85.03"/>
<polygon fill="black" stroke="black" points="822.5,-85.03 819,-75.03 815.5,-85.03 822.5,-85.03"/>
</g>
<!-- BD_A&#45;&gt;B6 -->
<g id="edge26" class="edge">
<title>BD_A&#45;&gt;B6</title>
<path fill="none" stroke="black" d="M935.78,-135C915.39,-135 891,-135 891,-135 891,-135 891,-85.09 891,-85.09"/>
<polygon fill="black" stroke="black" points="894.5,-85.09 891,-75.09 887.5,-85.09 894.5,-85.09"/>
</g>
<!-- BD_A&#45;&gt;D6 -->
<g id="edge27" class="edge">
<title>BD_A&#45;&gt;D6</title>
<path fill="none" stroke="black" d="M963,-110.83C963,-110.83 963,-85.41 963,-85.41"/>
<polygon fill="black" stroke="black" points="966.5,-85.41 963,-75.41 959.5,-85.41 966.5,-85.41"/>
</g>
<!-- AD_B&#45;&gt;A7 -->
<g id="edge28" class="edge">
<title>AD_B&#45;&gt;A7</title>
<path fill="none" stroke="black" d="M1035,-110.83C1035,-110.83 1035,-85.41 1035,-85.41"/>
<polygon fill="black" stroke="black" points="1038.5,-85.41 1035,-75.41 1031.5,-85.41 1038.5,-85.41"/>
</g>
<!-- AD_B&#45;&gt;D7 -->
<g id="edge29" class="edge">
<title>AD_B&#45;&gt;D7</title>
<path fill="none" stroke="black" d="M1062.22,-129C1082.61,-129 1107,-129 1107,-129 1107,-129 1107,-85.17 1107,-85.17"/>
<polygon fill="black" stroke="black" points="1110.5,-85.17 1107,-75.17 1103.5,-85.17 1110.5,-85.17"/>
</g>
<!-- AB_D&#45;&gt;A8 -->
<g id="edge30" class="edge">
<title>AB_D&#45;&gt;A8</title>
<path fill="none" stroke="black" d="M1179,-110.83C1179,-110.83 1179,-85.41 1179,-85.41"/>
<polygon fill="black" stroke="black" points="1182.5,-85.41 1179,-75.41 1175.5,-85.41 1182.5,-85.41"/>
</g>
<!-- AB_D&#45;&gt;B8 -->
<g id="edge31" class="edge">
<title>AB_D&#45;&gt;B8</title>
<path fill="none" stroke="black" d="M1206.22,-123C1226.61,-123 1251,-123 1251,-123 1251,-123 1251,-85.03 1251,-85.03"/>
<polygon fill="black" stroke="black" points="1254.5,-85.03 1251,-75.03 1247.5,-85.03 1254.5,-85.03"/>
</g>
<!-- BC_A&#45;&gt;B9 -->
<g id="edge35" class="edge">
<title>BC_A&#45;&gt;B9</title>
<path fill="none" stroke="black" d="M1367.78,-135C1347.39,-135 1323,-135 1323,-135 1323,-135 1323,-85.09 1323,-85.09"/>
<polygon fill="black" stroke="black" points="1326.5,-85.09 1323,-75.09 1319.5,-85.09 1326.5,-85.09"/>
</g>
<!-- BC_A&#45;&gt;C9 -->
<g id="edge36" class="edge">
<title>BC_A&#45;&gt;C9</title>
<path fill="none" stroke="black" d="M1395,-110.83C1395,-110.83 1395,-85.41 1395,-85.41"/>
<polygon fill="black" stroke="black" points="1398.5,-85.41 1395,-75.41 1391.5,-85.41 1398.5,-85.41"/>
</g>
<!-- AC_B&#45;&gt;A10 -->
<g id="edge37" class="edge">
<title>AC_B&#45;&gt;A10</title>
<path fill="none" stroke="black" d="M1467,-110.83C1467,-110.83 1467,-85.41 1467,-85.41"/>
<polygon fill="black" stroke="black" points="1470.5,-85.41 1467,-75.41 1463.5,-85.41 1470.5,-85.41"/>
</g>
<!-- AC_B&#45;&gt;C10 -->
<g id="edge38" class="edge">
<title>AC_B&#45;&gt;C10</title>
<path fill="none" stroke="black" d="M1494.22,-129C1514.61,-129 1539,-129 1539,-129 1539,-129 1539,-85.17 1539,-85.17"/>
<polygon fill="black" stroke="black" points="1542.5,-85.17 1539,-75.17 1535.5,-85.17 1542.5,-85.17"/>
</g>
<!-- AB_C&#45;&gt;A11 -->
<g id="edge39" class="edge">
<title>AB_C&#45;&gt;A11</title>
<path fill="none" stroke="black" d="M1611,-110.83C1611,-110.83 1611,-85.41 1611,-85.41"/>
<polygon fill="black" stroke="black" points="1614.5,-85.41 1611,-75.41 1607.5,-85.41 1614.5,-85.41"/>
</g>
<!-- AB_C&#45;&gt;B11 -->
<g id="edge40" class="edge">
<title>AB_C&#45;&gt;B11</title>
<path fill="none" stroke="black" d="M1638.22,-129C1658.61,-129 1683,-129 1683,-129 1683,-129 1683,-85.17 1683,-85.17"/>
<polygon fill="black" stroke="black" points="1686.5,-85.17 1683,-75.17 1679.5,-85.17 1686.5,-85.17"/>
</g>
<!-- ABCD -->
<g id="node41" class="node">
<title>ABCD</title>
<polygon fill="none" stroke="black" points="920.5,-291 861.5,-291 861.5,-255 920.5,-255 920.5,-291"/>
<text text-anchor="middle" x="891" y="-269.3" font-family="Times,serif" font-size="14.00">ABCD</text>
</g>
<!-- ABCD&#45;&gt;BCD_A -->
<g id="edge1" class="edge">
<title>ABCD&#45;&gt;BCD_A</title>
<path fill="none" stroke="black" d="M861.48,-279C739.23,-279 279,-279 279,-279 279,-279 279,-229.09 279,-229.09"/>
<polygon fill="black" stroke="black" points="282.5,-229.09 279,-219.09 275.5,-229.09 282.5,-229.09"/>
</g>
<!-- ABCD&#45;&gt;ACD_B -->
<g id="edge2" class="edge">
<title>ABCD&#45;&gt;ACD_B</title>
<path fill="none" stroke="black" d="M861.28,-267C810.15,-267 711,-267 711,-267 711,-267 711,-229.03 711,-229.03"/>
<polygon fill="black" stroke="black" points="714.5,-229.03 711,-219.03 707.5,-229.03 714.5,-229.03"/>
</g>
<!-- ABCD&#45;&gt;ABD_C -->
<g id="edge3" class="edge">
<title>ABCD&#45;&gt;ABD_C</title>
<path fill="none" stroke="black" d="M920.51,-267C952.49,-267 999,-267 999,-267 999,-267 999,-229.03 999,-229.03"/>
<polygon fill="black" stroke="black" points="1002.5,-229.03 999,-219.03 995.5,-229.03 1002.5,-229.03"/>
</g>
<!-- ABCD&#45;&gt;ABC_D -->
<g id="edge4" class="edge">
<title>ABCD&#45;&gt;ABC_D</title>
<path fill="none" stroke="black" d="M920.8,-279C1034.01,-279 1431,-279 1431,-279 1431,-279 1431,-229.09 1431,-229.09"/>
<polygon fill="black" stroke="black" points="1434.5,-229.09 1431,-219.09 1427.5,-229.09 1434.5,-229.09"/>
</g>
</g>
</svg>
