<?xml version="1.0" encoding="UTF-8" standalone="no"?>
<!DOCTYPE svg PUBLIC "-//W3C//DTD SVG 1.1//EN"
 "http://www.w3.org/Graphics/SVG/1.1/DTD/svg11.dtd">
<!-- Generated by graphviz version 2.43.0 (0)
 -->
<!-- Title: ln_linky Pages: 1 -->
<svg width="638pt" height="244pt"
 viewBox="0.00 0.00 638.00 244.00" xmlns="http://www.w3.org/2000/svg" xmlns:xlink="http://www.w3.org/1999/xlink">
<g id="graph0" class="graph" transform="scale(1 1) rotate(0) translate(4 240)">
<title>ln_linky</title>
<text text-anchor="middle" x="315" y="-22.8" font-family="Times,serif" font-size="14.00">Route hints to Alice&#39;s Phantom Node provide paths through</text>
<text text-anchor="middle" x="315" y="-7.8" font-family="Times,serif" font-size="14.00">one of Alice&#39;s real nodes, any one of which can claim the payment</text>
<!-- A1 -->
<g id="node1" class="node">
<title>A1</title>
<polygon fill="none" stroke="black" points="548.5,-164 441.5,-164 441.5,-128 548.5,-128 548.5,-164"/>
<text text-anchor="middle" x="495" y="-142.3" font-family="Times,serif" font-size="14.00">Alice Node 3</text>
</g>
<!-- Phantom -->
<g id="node4" class="node">
<title>Phantom</title>
<polygon fill="none" stroke="black" points="410,-92 220,-92 220,-54 410,-54 410,-92"/>
<text text-anchor="middle" x="315" y="-76.8" font-family="Times,serif" font-size="14.00">Phantom Node</text>
<text text-anchor="middle" x="315" y="-61.8" font-family="Times,serif" font-size="14.00">(Ostensible Destination)</text>
</g>
<!-- A1&#45;&gt;Phantom -->
<g id="edge1" class="edge">
<title>A1&#45;&gt;Phantom</title>
<path fill="none" stroke="black" d="M451.89,-127.99C427.43,-118.35 396.57,-106.17 370.34,-95.83"/>
<polygon fill="black" stroke="black" points="371.5,-92.52 360.91,-92.11 368.93,-99.03 371.5,-92.52"/>
</g>
<!-- A2 -->
<g id="node2" class="node">
<title>A2</title>
<polygon fill="none" stroke="black" points="188.5,-164 81.5,-164 81.5,-128 188.5,-128 188.5,-164"/>
<text text-anchor="middle" x="135" y="-142.3" font-family="Times,serif" font-size="14.00">Alice Node 1</text>
</g>
<!-- A2&#45;&gt;Phantom -->
<g id="edge2" class="edge">
<title>A2&#45;&gt;Phantom</title>
<path fill="none" stroke="black" d="M178.11,-127.99C202.57,-118.35 233.43,-106.17 259.66,-95.83"/>
<polygon fill="black" stroke="black" points="261.07,-99.03 269.09,-92.11 258.5,-92.52 261.07,-99.03"/>
</g>
<!-- A3 -->
<g id="node3" class="node">
<title>A3</title>
<polygon fill="none" stroke="black" points="368.5,-164 261.5,-164 261.5,-128 368.5,-128 368.5,-164"/>
<text text-anchor="middle" x="315" y="-142.3" font-family="Times,serif" font-size="14.00">Alice Node 2</text>
</g>
<!-- A3&#45;&gt;Phantom -->
<g id="edge3" class="edge">
<title>A3&#45;&gt;Phantom</title>
<path fill="none" stroke="black" d="M315,-127.81C315,-120.11 315,-110.82 315,-102.15"/>
<polygon fill="black" stroke="black" points="318.5,-102.02 315,-92.02 311.5,-102.02 318.5,-102.02"/>
</g>
<!-- x1a -->
<g id="node5" class="node">
<title>x1a</title>
</g>
<!-- x1a&#45;&gt;A1 -->
<g id="edge4" class="edge">
<title>x1a&#45;&gt;A1</title>
<path fill="none" stroke="black" d="M467.9,-199.7C472,-191.73 476.95,-182.1 481.49,-173.26"/>
<polygon fill="black" stroke="black" points="484.74,-174.6 486.2,-164.1 478.52,-171.4 484.74,-174.6"/>
</g>
<!-- x1b -->
<g id="node6" class="node">
<title>x1b</title>
</g>
<!-- x1b&#45;&gt;A1 -->
<g id="edge5" class="edge">
<title>x1b&#45;&gt;A1</title>
<path fill="none" stroke="black" d="M522.1,-199.7C518,-191.73 513.05,-182.1 508.51,-173.26"/>
<polygon fill="black" stroke="black" points="511.48,-171.4 503.8,-164.1 505.26,-174.6 511.48,-171.4"/>
</g>
<!-- x1c -->
<g id="node7" class="node">
<title>x1c</title>
</g>
<!-- x1c&#45;&gt;A1 -->
<g id="edge6" class="edge">
<title>x1c&#45;&gt;A1</title>
<path fill="none" stroke="black" d="M576.58,-199.88C562.59,-190.81 545.22,-179.55 530.11,-169.76"/>
<polygon fill="black" stroke="black" points="531.82,-166.69 521.52,-164.19 528.01,-172.57 531.82,-166.69"/>
</g>
<!-- x2a -->
<g id="node8" class="node">
<title>x2a</title>
</g>
<!-- x2a&#45;&gt;A2 -->
<g id="edge7" class="edge">
<title>x2a&#45;&gt;A2</title>
<path fill="none" stroke="black" d="M53.42,-199.88C67.41,-190.81 84.78,-179.55 99.89,-169.76"/>
<polygon fill="black" stroke="black" points="101.99,-172.57 108.48,-164.19 98.18,-166.69 101.99,-172.57"/>
</g>
<!-- x2b -->
<g id="node9" class="node">
<title>x2b</title>
</g>
<!-- x2b&#45;&gt;A2 -->
<g id="edge8" class="edge">
<title>x2b&#45;&gt;A2</title>
<path fill="none" stroke="black" d="M107.9,-199.7C112,-191.73 116.95,-182.1 121.49,-173.26"/>
<polygon fill="black" stroke="black" points="124.74,-174.6 126.2,-164.1 118.52,-171.4 124.74,-174.6"/>
</g>
<!-- x2c -->
<g id="node10" class="node">
<title>x2c</title>
</g>
<!-- x2c&#45;&gt;A2 -->
<g id="edge9" class="edge">
<title>x2c&#45;&gt;A2</title>
<path fill="none" stroke="black" d="M162.1,-199.7C158,-191.73 153.05,-182.1 148.51,-173.26"/>
<polygon fill="black" stroke="black" points="151.48,-171.4 143.8,-164.1 145.26,-174.6 151.48,-171.4"/>
</g>
<!-- x3a -->
<g id="node11" class="node">
<title>x3a</title>
</g>
<!-- x3a&#45;&gt;A3 -->
<g id="edge10" class="edge">
<title>x3a&#45;&gt;A3</title>
<path fill="none" stroke="black" d="M260.8,-199.7C269.6,-191.14 280.38,-180.66 290,-171.3"/>
<polygon fill="black" stroke="black" points="292.68,-173.58 297.41,-164.1 287.8,-168.57 292.68,-173.58"/>
</g>
<!-- x3b -->
<g id="node12" class="node">
<title>x3b</title>
</g>
<!-- x3b&#45;&gt;A3 -->
<g id="edge11" class="edge">
<title>x3b&#45;&gt;A3</title>
<path fill="none" stroke="black" d="M315,-199.7C315,-191.98 315,-182.71 315,-174.11"/>
<polygon fill="black" stroke="black" points="318.5,-174.1 315,-164.1 311.5,-174.1 318.5,-174.1"/>
</g>
<!-- x3c -->
<g id="node13" class="node">
<title>x3c</title>
</g>
<!-- x3c&#45;&gt;A3 -->
<g id="edge12" class="edge">
<title>x3c&#45;&gt;A3</title>
<path fill="none" stroke="black" d="M369.2,-199.7C360.4,-191.14 349.62,-180.66 340,-171.3"/>
<polygon fill="black" stroke="black" points="342.2,-168.57 332.59,-164.1 337.32,-173.58 342.2,-168.57"/>
</g>
</g>
</svg>
